<svg width="216" height="116" viewBox="0 0 216 116" fill="none" xmlns="http://www.w3.org/2000/svg">
<path d="M5.01602 13.1442C4.36802 13.1442 3.76402 13.0402 3.20402 12.8322C2.65202 12.6162 2.17202 12.3122 1.76402 11.9202C1.35602 11.5282 1.03602 11.0682 0.804018 10.5402C0.580018 10.0122 0.468018 9.43215 0.468018 8.80015C0.468018 8.16815 0.580018 7.58815 0.804018 7.06015C1.03602 6.53215 1.35602 6.07215 1.76402 5.68015C2.18002 5.28815 2.66402 4.98815 3.21602 4.78015C3.76802 4.56415 4.37202 4.45615 5.02802 4.45615C5.75602 4.45615 6.41202 4.58415 6.99602 4.84015C7.58802 5.08815 8.08402 5.45615 8.48402 5.94415L7.23602 7.09615C6.94802 6.76815 6.62802 6.52415 6.27602 6.36415C5.92402 6.19615 5.54002 6.11215 5.12402 6.11215C4.73202 6.11215 4.37202 6.17615 4.04402 6.30415C3.71602 6.43215 3.43202 6.61615 3.19202 6.85615C2.95202 7.09615 2.76402 7.38015 2.62802 7.70815C2.50002 8.03615 2.43602 8.40015 2.43602 8.80015C2.43602 9.20015 2.50002 9.56415 2.62802 9.89215C2.76402 10.2202 2.95202 10.5042 3.19202 10.7442C3.43202 10.9842 3.71602 11.1682 4.04402 11.2962C4.37202 11.4242 4.73202 11.4882 5.12402 11.4882C5.54002 11.4882 5.92402 11.4082 6.27602 11.2482C6.62802 11.0802 6.94802 10.8282 7.23602 10.4922L8.48402 11.6442C8.08402 12.1322 7.58802 12.5042 6.99602 12.7602C6.41202 13.0162 5.75202 13.1442 5.01602 13.1442ZM12.5141 13.0962C11.8261 13.0962 11.2141 12.9522 10.6781 12.6642C10.1501 12.3762 9.73015 11.9842 9.41815 11.4882C9.11415 10.9842 8.96215 10.4122 8.96215 9.77215C8.96215 9.12415 9.11415 8.55215 9.41815 8.05615C9.73015 7.55215 10.1501 7.16015 10.6781 6.88015C11.2141 6.59215 11.8261 6.44815 12.5141 6.44815C13.1941 6.44815 13.8021 6.59215 14.3381 6.88015C14.8741 7.16015 15.2941 7.54815 15.5981 8.04415C15.9021 8.54015 16.0541 9.11615 16.0541 9.77215C16.0541 10.4122 15.9021 10.9842 15.5981 11.4882C15.2941 11.9842 14.8741 12.3762 14.3381 12.6642C13.8021 12.9522 13.1941 13.0962 12.5141 13.0962ZM12.5141 11.5602C12.8261 11.5602 13.1061 11.4882 13.3541 11.3442C13.6021 11.2002 13.7981 10.9962 13.9421 10.7322C14.0861 10.4602 14.1581 10.1402 14.1581 9.77215C14.1581 9.39615 14.0861 9.07615 13.9421 8.81215C13.7981 8.54815 13.6021 8.34415 13.3541 8.20015C13.1061 8.05615 12.8261 7.98415 12.5141 7.98415C12.2021 7.98415 11.9221 8.05615 11.6741 8.20015C11.4261 8.34415 11.2261 8.54815 11.0741 8.81215C10.9301 9.07615 10.8581 9.39615 10.8581 9.77215C10.8581 10.1402 10.9301 10.4602 11.0741 10.7322C11.2261 10.9962 11.4261 11.2002 11.6741 11.3442C11.9221 11.4882 12.2021 11.5602 12.5141 11.5602ZM21.2294 6.44815C21.7414 6.44815 22.1974 6.55215 22.5974 6.76015C23.0054 6.96015 23.3254 7.27215 23.5574 7.69615C23.7894 8.11215 23.9054 8.64815 23.9054 9.30415V13.0002H22.0334V9.59215C22.0334 9.07215 21.9174 8.68815 21.6854 8.44015C21.4614 8.19215 21.1414 8.06815 20.7254 8.06815C20.4294 8.06815 20.1614 8.13215 19.9214 8.26015C19.6894 8.38015 19.5054 8.56815 19.3694 8.82415C19.2414 9.08015 19.1774 9.40815 19.1774 9.80815V13.0002H17.3054V6.54415H19.0934V8.33215L18.7574 7.79215C18.9894 7.36015 19.3214 7.02815 19.7534 6.79615C20.1854 6.56415 20.6774 6.44815 21.2294 6.44815ZM28.2423 13.0962C27.4823 13.0962 26.8903 12.9042 26.4663 12.5202C26.0423 12.1282 25.8303 11.5482 25.8303 10.7802V5.11615H27.7023V10.7562C27.7023 11.0282 27.7743 11.2402 27.9183 11.3922C28.0623 11.5362 28.2583 11.6082 28.5063 11.6082C28.8023 11.6082 29.0543 11.5282 29.2623 11.3682L29.7663 12.6882C29.5743 12.8242 29.3423 12.9282 29.0703 13.0002C28.8063 13.0642 28.5303 13.0962 28.2423 13.0962ZM24.8343 8.12815V6.68815H29.3103V8.12815H24.8343ZM33.8219 13.0962C33.0859 13.0962 32.4379 12.9522 31.8779 12.6642C31.3259 12.3762 30.8979 11.9842 30.5939 11.4882C30.2899 10.9842 30.1379 10.4122 30.1379 9.77215C30.1379 9.12415 30.2859 8.55215 30.5819 8.05615C30.8859 7.55215 31.2979 7.16015 31.8179 6.88015C32.3379 6.59215 32.9259 6.44815 33.5819 6.44815C34.2139 6.44815 34.7819 6.58415 35.2859 6.85615C35.7979 7.12015 36.2019 7.50415 36.4979 8.00815C36.7939 8.50415 36.9419 9.10015 36.9419 9.79615C36.9419 9.86815 36.9379 9.95215 36.9299 10.0482C36.9219 10.1362 36.9139 10.2202 36.9059 10.3002H31.6619V9.20815H35.9219L35.2019 9.53215C35.2019 9.19615 35.1339 8.90415 34.9979 8.65615C34.8619 8.40815 34.6739 8.21615 34.4339 8.08015C34.1939 7.93615 33.9139 7.86415 33.5939 7.86415C33.2739 7.86415 32.9899 7.93615 32.7419 8.08015C32.5019 8.21615 32.3139 8.41215 32.1779 8.66815C32.0419 8.91615 31.9739 9.21215 31.9739 9.55615V9.84415C31.9739 10.1962 32.0499 10.5082 32.2019 10.7802C32.3619 11.0442 32.5819 11.2482 32.8619 11.3922C33.1499 11.5282 33.4859 11.5962 33.8699 11.5962C34.2139 11.5962 34.5139 11.5442 34.7699 11.4402C35.0339 11.3362 35.2739 11.1802 35.4899 10.9722L36.4859 12.0522C36.1899 12.3882 35.8179 12.6482 35.3699 12.8322C34.9219 13.0082 34.4059 13.0962 33.8219 13.0962ZM42.1122 6.44815C42.6242 6.44815 43.0802 6.55215 43.4802 6.76015C43.8882 6.96015 44.2082 7.27215 44.4402 7.69615C44.6722 8.11215 44.7882 8.64815 44.7882 9.30415V13.0002H42.9162V9.59215C42.9162 9.07215 42.8002 8.68815 42.5682 8.44015C42.3442 8.19215 42.0242 8.06815 41.6082 8.06815C41.3122 8.06815 41.0442 8.13215 40.8042 8.26015C40.5722 8.38015 40.3882 8.56815 40.2522 8.82415C40.1242 9.08015 40.0602 9.40815 40.0602 9.80815V13.0002H38.1882V6.54415H39.9762V8.33215L39.6402 7.79215C39.8722 7.36015 40.2042 7.02815 40.6362 6.79615C41.0682 6.56415 41.5602 6.44815 42.1122 6.44815ZM49.1251 13.0962C48.3651 13.0962 47.7731 12.9042 47.3491 12.5202C46.9251 12.1282 46.7131 11.5482 46.7131 10.7802V5.11615H48.5851V10.7562C48.5851 11.0282 48.6571 11.2402 48.8011 11.3922C48.9451 11.5362 49.1411 11.6082 49.3891 11.6082C49.6851 11.6082 49.9371 11.5282 50.1451 11.3682L50.6491 12.6882C50.4571 12.8242 50.2251 12.9282 49.9531 13.0002C49.6891 13.0642 49.4131 13.0962 49.1251 13.0962ZM45.7171 8.12815V6.68815H50.1931V8.12815H45.7171ZM51.4931 14.8482L52.2851 11.9682L52.5491 13.0482C52.2051 13.0482 51.9211 12.9482 51.6971 12.7482C51.4811 12.5482 51.3731 12.2722 51.3731 11.9202C51.3731 11.5682 51.4851 11.2882 51.7091 11.0802C51.9331 10.8722 52.2091 10.7682 52.5371 10.7682C52.8731 10.7682 53.1491 10.8762 53.3651 11.0922C53.5811 11.3002 53.6891 11.5762 53.6891 11.9202C53.6891 12.0242 53.6811 12.1282 53.6651 12.2322C53.6491 12.3282 53.6171 12.4482 53.5691 12.5922C53.5291 12.7282 53.4611 12.9042 53.3651 13.1202L52.6811 14.8482H51.4931ZM58.4882 13.0002V4.60015H62.3042C63.2162 4.60015 64.0202 4.77615 64.7162 5.12815C65.4122 5.47215 65.9562 5.95615 66.3482 6.58015C66.7402 7.20415 66.9362 7.94415 66.9362 8.80015C66.9362 9.64815 66.7402 10.3882 66.3482 11.0202C65.9562 11.6442 65.4122 12.1322 64.7162 12.4842C64.0202 12.8282 63.2162 13.0002 62.3042 13.0002H58.4882ZM60.4322 11.4042H62.2082C62.7682 11.4042 63.2522 11.3002 63.6602 11.0922C64.0762 10.8762 64.3962 10.5722 64.6202 10.1802C64.8522 9.78815 64.9682 9.32815 64.9682 8.80015C64.9682 8.26415 64.8522 7.80415 64.6202 7.42015C64.3962 7.02815 64.0762 6.72815 63.6602 6.52015C63.2522 6.30415 62.7682 6.19615 62.2082 6.19615H60.4322V11.4042ZM71.4743 13.0962C70.7383 13.0962 70.0903 12.9522 69.5303 12.6642C68.9783 12.3762 68.5503 11.9842 68.2463 11.4882C67.9423 10.9842 67.7903 10.4122 67.7903 9.77215C67.7903 9.12415 67.9383 8.55215 68.2343 8.05615C68.5383 7.55215 68.9503 7.16015 69.4703 6.88015C69.9903 6.59215 70.5783 6.44815 71.2343 6.44815C71.8663 6.44815 72.4343 6.58415 72.9383 6.85615C73.4503 7.12015 73.8543 7.50415 74.1503 8.00815C74.4463 8.50415 74.5943 9.10015 74.5943 9.79615C74.5943 9.86815 74.5903 9.95215 74.5823 10.0482C74.5743 10.1362 74.5663 10.2202 74.5583 10.3002H69.3143V9.20815H73.5742L72.8543 9.53215C72.8543 9.19615 72.7863 8.90415 72.6503 8.65615C72.5143 8.40815 72.3263 8.21615 72.0863 8.08015C71.8463 7.93615 71.5663 7.86415 71.2463 7.86415C70.9263 7.86415 70.6423 7.93615 70.3943 8.08015C70.1543 8.21615 69.9663 8.41215 69.8303 8.66815C69.6943 8.91615 69.6263 9.21215 69.6263 9.55615V9.84415C69.6263 10.1962 69.7023 10.5082 69.8543 10.7802C70.0143 11.0442 70.2343 11.2482 70.5143 11.3922C70.8023 11.5282 71.1383 11.5962 71.5223 11.5962C71.8663 11.5962 72.1663 11.5442 72.4223 11.4402C72.6863 11.3362 72.9263 11.1802 73.1423 10.9722L74.1383 12.0522C73.8423 12.3882 73.4703 12.6482 73.0223 12.8322C72.5743 13.0082 72.0583 13.0962 71.4743 13.0962ZM78.0126 13.0962C77.4606 13.0962 76.9286 13.0322 76.4166 12.9042C75.9126 12.7682 75.5126 12.6002 75.2166 12.4002L75.8406 11.0562C76.1366 11.2402 76.4846 11.3922 76.8846 11.5122C77.2926 11.6242 77.6926 11.6802 78.0846 11.6802C78.5166 11.6802 78.8206 11.6282 78.9966 11.5242C79.1806 11.4202 79.2726 11.2762 79.2726 11.0922C79.2726 10.9402 79.2006 10.8282 79.0566 10.7562C78.9206 10.6762 78.7366 10.6162 78.5046 10.5762C78.2726 10.5362 78.0166 10.4962 77.7366 10.4562C77.4646 10.4162 77.1886 10.3642 76.9086 10.3002C76.6286 10.2282 76.3726 10.1242 76.1406 9.98815C75.9086 9.85215 75.7206 9.66815 75.5766 9.43615C75.4406 9.20415 75.3726 8.90415 75.3726 8.53615C75.3726 8.12815 75.4886 7.76815 75.7206 7.45615C75.9606 7.14415 76.3046 6.90015 76.7526 6.72415C77.2006 6.54015 77.7366 6.44815 78.3606 6.44815C78.8006 6.44815 79.2486 6.49615 79.7046 6.59215C80.1606 6.68815 80.5406 6.82815 80.8446 7.01215L80.2206 8.34415C79.9086 8.16015 79.5926 8.03615 79.2726 7.97215C78.9606 7.90015 78.6566 7.86415 78.3606 7.86415C77.9446 7.86415 77.6406 7.92015 77.4486 8.03215C77.2566 8.14415 77.1606 8.28815 77.1606 8.46415C77.1606 8.62415 77.2286 8.74415 77.3646 8.82415C77.5086 8.90415 77.6966 8.96815 77.9286 9.01615C78.1606 9.06415 78.4126 9.10815 78.6846 9.14815C78.9646 9.18015 79.2446 9.23215 79.5246 9.30415C79.8046 9.37615 80.0566 9.48015 80.2806 9.61615C80.5126 9.74415 80.7006 9.92415 80.8446 10.1562C80.9886 10.3802 81.0606 10.6762 81.0606 11.0442C81.0606 11.4442 80.9406 11.8002 80.7006 12.1122C80.4606 12.4162 80.1126 12.6562 79.6566 12.8322C79.2086 13.0082 78.6606 13.0962 78.0126 13.0962ZM82.2156 13.0002V6.54415H84.0876V13.0002H82.2156ZM83.1516 5.64415C82.8076 5.64415 82.5276 5.54415 82.3116 5.34415C82.0956 5.14415 81.9876 4.89615 81.9876 4.60015C81.9876 4.30415 82.0956 4.05615 82.3116 3.85615C82.5276 3.65615 82.8076 3.55615 83.1516 3.55615C83.4956 3.55615 83.7756 3.65215 83.9916 3.84415C84.2076 4.02815 84.3156 4.26815 84.3156 4.56415C84.3156 4.87615 84.2076 5.13615 83.9916 5.34415C83.7836 5.54415 83.5036 5.64415 83.1516 5.64415ZM88.8609 15.4242C88.2529 15.4242 87.6649 15.3482 87.0969 15.1962C86.5369 15.0522 86.0689 14.8322 85.6929 14.5362L86.4369 13.1922C86.7089 13.4162 87.0529 13.5922 87.4689 13.7202C87.8929 13.8562 88.3089 13.9242 88.7169 13.9242C89.3809 13.9242 89.8609 13.7762 90.1569 13.4802C90.4609 13.1842 90.6129 12.7442 90.6129 12.1602V11.1882L90.7329 9.56815L90.7089 7.93615V6.54415H92.4849V11.9202C92.4849 13.1202 92.1729 14.0042 91.5489 14.5722C90.9249 15.1402 90.0289 15.4242 88.8609 15.4242ZM88.5729 12.6882C87.9729 12.6882 87.4289 12.5602 86.9409 12.3042C86.4609 12.0402 86.0729 11.6762 85.7769 11.2122C85.4889 10.7402 85.3449 10.1922 85.3449 9.56815C85.3449 8.93615 85.4889 8.38815 85.7769 7.92415C86.0729 7.45215 86.4609 7.08815 86.9409 6.83215C87.4289 6.57615 87.9729 6.44815 88.5729 6.44815C89.1169 6.44815 89.5969 6.56015 90.0129 6.78415C90.4289 7.00015 90.7529 7.34015 90.9849 7.80415C91.2169 8.26015 91.3329 8.84815 91.3329 9.56815C91.3329 10.2802 91.2169 10.8682 90.9849 11.3322C90.7529 11.7882 90.4289 12.1282 90.0129 12.3522C89.5969 12.5762 89.1169 12.6882 88.5729 12.6882ZM88.9449 11.1522C89.2729 11.1522 89.5649 11.0882 89.8209 10.9602C90.0769 10.8242 90.2769 10.6362 90.4209 10.3962C90.5649 10.1562 90.6369 9.88015 90.6369 9.56815C90.6369 9.24815 90.5649 8.97215 90.4209 8.74015C90.2769 8.50015 90.0769 8.31615 89.8209 8.18815C89.5649 8.05215 89.2729 7.98415 88.9449 7.98415C88.6169 7.98415 88.3249 8.05215 88.0689 8.18815C87.8129 8.31615 87.6089 8.50015 87.4569 8.74015C87.3129 8.97215 87.2409 9.24815 87.2409 9.56815C87.2409 9.88015 87.3129 10.1562 87.4569 10.3962C87.6089 10.6362 87.8129 10.8242 88.0689 10.9602C88.3249 11.0882 88.6169 11.1522 88.9449 11.1522ZM98.1513 6.44815C98.6633 6.44815 99.1193 6.55215 99.5193 6.76015C99.9273 6.96015 100.247 7.27215 100.479 7.69615C100.711 8.11215 100.827 8.64815 100.827 9.30415V13.0002H98.9553V9.59215C98.9553 9.07215 98.8393 8.68815 98.6073 8.44015C98.3833 8.19215 98.0633 8.06815 97.6473 8.06815C97.3513 8.06815 97.0833 8.13215 96.8433 8.26015C96.6113 8.38015 96.4273 8.56815 96.2913 8.82415C96.1633 9.08015 96.0993 9.40815 96.0993 9.80815V13.0002H94.2273V6.54415H96.0153V8.33215L95.6793 7.79215C95.9113 7.36015 96.2433 7.02815 96.6753 6.79615C97.1073 6.56415 97.5993 6.44815 98.1513 6.44815ZM109.883 13.0002V11.7402L109.763 11.4642V9.20815C109.763 8.80815 109.639 8.49615 109.391 8.27215C109.151 8.04815 108.779 7.93615 108.275 7.93615C107.931 7.93615 107.591 7.99215 107.255 8.10415C106.927 8.20815 106.647 8.35215 106.415 8.53615L105.743 7.22815C106.095 6.98015 106.519 6.78815 107.015 6.65215C107.511 6.51615 108.015 6.44815 108.527 6.44815C109.511 6.44815 110.275 6.68015 110.819 7.14415C111.363 7.60815 111.635 8.33215 111.635 9.31615V13.0002H109.883ZM107.915 13.0962C107.411 13.0962 106.979 13.0122 106.619 12.8442C106.259 12.6682 105.983 12.4322 105.791 12.1362C105.599 11.8402 105.503 11.5082 105.503 11.1402C105.503 10.7562 105.595 10.4202 105.779 10.1322C105.971 9.84415 106.271 9.62015 106.679 9.46015C107.087 9.29215 107.619 9.20815 108.275 9.20815H109.991V10.3002H108.479C108.039 10.3002 107.735 10.3722 107.567 10.5162C107.407 10.6602 107.327 10.8402 107.327 11.0562C107.327 11.2962 107.419 11.4882 107.603 11.6322C107.795 11.7682 108.055 11.8362 108.383 11.8362C108.695 11.8362 108.975 11.7642 109.223 11.6202C109.471 11.4682 109.651 11.2482 109.763 10.9602L110.051 11.8242C109.915 12.2402 109.667 12.5562 109.307 12.7722C108.947 12.9882 108.483 13.0962 107.915 13.0962ZM117.253 6.44815C117.765 6.44815 118.221 6.55215 118.621 6.76015C119.029 6.96015 119.349 7.27215 119.581 7.69615C119.813 8.11215 119.929 8.64815 119.929 9.30415V13.0002H118.057V9.59215C118.057 9.07215 117.941 8.68815 117.709 8.44015C117.485 8.19215 117.165 8.06815 116.749 8.06815C116.453 8.06815 116.185 8.13215 115.945 8.26015C115.713 8.38015 115.529 8.56815 115.393 8.82415C115.265 9.08015 115.201 9.40815 115.201 9.80815V13.0002H113.329V6.54415H115.117V8.33215L114.781 7.79215C115.013 7.36015 115.345 7.02815 115.777 6.79615C116.209 6.56415 116.701 6.44815 117.253 6.44815ZM124.445 13.0962C123.837 13.0962 123.289 12.9602 122.801 12.6882C122.313 12.4082 121.925 12.0202 121.637 11.5242C121.357 11.0282 121.217 10.4442 121.217 9.77215C121.217 9.09215 121.357 8.50415 121.637 8.00815C121.925 7.51215 122.313 7.12815 122.801 6.85615C123.289 6.58415 123.837 6.44815 124.445 6.44815C124.989 6.44815 125.465 6.56815 125.873 6.80815C126.281 7.04815 126.597 7.41215 126.821 7.90015C127.045 8.38815 127.157 9.01215 127.157 9.77215C127.157 10.5242 127.049 11.1482 126.833 11.6442C126.617 12.1322 126.305 12.4962 125.897 12.7362C125.497 12.9762 125.013 13.0962 124.445 13.0962ZM124.769 11.5602C125.073 11.5602 125.349 11.4882 125.597 11.3442C125.845 11.2002 126.041 10.9962 126.185 10.7322C126.337 10.4602 126.413 10.1402 126.413 9.77215C126.413 9.39615 126.337 9.07615 126.185 8.81215C126.041 8.54815 125.845 8.34415 125.597 8.20015C125.349 8.05615 125.073 7.98415 124.769 7.98415C124.457 7.98415 124.177 8.05615 123.929 8.20015C123.681 8.34415 123.481 8.54815 123.329 8.81215C123.185 9.07615 123.113 9.39615 123.113 9.77215C123.113 10.1402 123.185 10.4602 123.329 10.7322C123.481 10.9962 123.681 11.2002 123.929 11.3442C124.177 11.4882 124.457 11.5602 124.769 11.5602ZM126.461 13.0002V11.6802L126.497 9.76015L126.377 7.85215V4.09615H128.249V13.0002H126.461ZM137.532 13.1442C136.884 13.1442 136.28 13.0402 135.72 12.8322C135.168 12.6162 134.688 12.3122 134.28 11.9202C133.872 11.5282 133.552 11.0682 133.32 10.5402C133.096 10.0122 132.984 9.43215 132.984 8.80015C132.984 8.16815 133.096 7.58815 133.32 7.06015C133.552 6.53215 133.872 6.07215 134.28 5.68015C134.696 5.28815 135.18 4.98815 135.732 4.78015C136.284 4.56415 136.888 4.45615 137.544 4.45615C138.272 4.45615 138.928 4.58415 139.512 4.84015C140.104 5.08815 140.6 5.45615 141 5.94415L139.752 7.09615C139.464 6.76815 139.144 6.52415 138.792 6.36415C138.44 6.19615 138.056 6.11215 137.64 6.11215C137.248 6.11215 136.888 6.17615 136.56 6.30415C136.232 6.43215 135.948 6.61615 135.708 6.85615C135.468 7.09615 135.28 7.38015 135.144 7.70815C135.016 8.03615 134.952 8.40015 134.952 8.80015C134.952 9.20015 135.016 9.56415 135.144 9.89215C135.28 10.2202 135.468 10.5042 135.708 10.7442C135.948 10.9842 136.232 11.1682 136.56 11.2962C136.888 11.4242 137.248 11.4882 137.64 11.4882C138.056 11.4882 138.44 11.4082 138.792 11.2482C139.144 11.0802 139.464 10.8282 139.752 10.4922L141 11.6442C140.6 12.1322 140.104 12.5042 139.512 12.7602C138.928 13.0162 138.268 13.1442 137.532 13.1442ZM145.03 13.0962C144.342 13.0962 143.73 12.9522 143.194 12.6642C142.666 12.3762 142.246 11.9842 141.934 11.4882C141.63 10.9842 141.478 10.4122 141.478 9.77215C141.478 9.12415 141.63 8.55215 141.934 8.05615C142.246 7.55215 142.666 7.16015 143.194 6.88015C143.73 6.59215 144.342 6.44815 145.03 6.44815C145.71 6.44815 146.318 6.59215 146.854 6.88015C147.39 7.16015 147.81 7.54815 148.114 8.04415C148.418 8.54015 148.57 9.11615 148.57 9.77215C148.57 10.4122 148.418 10.9842 148.114 11.4882C147.81 11.9842 147.39 12.3762 146.854 12.6642C146.318 12.9522 145.71 13.0962 145.03 13.0962ZM145.03 11.5602C145.342 11.5602 145.622 11.4882 145.87 11.3442C146.118 11.2002 146.314 10.9962 146.458 10.7322C146.602 10.4602 146.674 10.1402 146.674 9.77215C146.674 9.39615 146.602 9.07615 146.458 8.81215C146.314 8.54815 146.118 8.34415 145.87 8.20015C145.622 8.05615 145.342 7.98415 145.03 7.98415C144.718 7.98415 144.438 8.05615 144.19 8.20015C143.942 8.34415 143.742 8.54815 143.59 8.81215C143.446 9.07615 143.374 9.39615 143.374 9.77215C143.374 10.1402 143.446 10.4602 143.59 10.7322C143.742 10.9962 143.942 11.2002 144.19 11.3442C144.438 11.4882 144.718 11.5602 145.03 11.5602ZM152.593 13.0962C151.985 13.0962 151.437 12.9602 150.949 12.6882C150.461 12.4082 150.073 12.0202 149.785 11.5242C149.505 11.0282 149.365 10.4442 149.365 9.77215C149.365 9.09215 149.505 8.50415 149.785 8.00815C150.073 7.51215 150.461 7.12815 150.949 6.85615C151.437 6.58415 151.985 6.44815 152.593 6.44815C153.137 6.44815 153.613 6.56815 154.021 6.80815C154.429 7.04815 154.745 7.41215 154.969 7.90015C155.193 8.38815 155.305 9.01215 155.305 9.77215C155.305 10.5242 155.197 11.1482 154.981 11.6442C154.765 12.1322 154.453 12.4962 154.045 12.7362C153.645 12.9762 153.161 13.0962 152.593 13.0962ZM152.917 11.5602C153.221 11.5602 153.497 11.4882 153.745 11.3442C153.993 11.2002 154.189 10.9962 154.333 10.7322C154.485 10.4602 154.561 10.1402 154.561 9.77215C154.561 9.39615 154.485 9.07615 154.333 8.81215C154.189 8.54815 153.993 8.34415 153.745 8.20015C153.497 8.05615 153.221 7.98415 152.917 7.98415C152.605 7.98415 152.325 8.05615 152.077 8.20015C151.829 8.34415 151.629 8.54815 151.477 8.81215C151.333 9.07615 151.261 9.39615 151.261 9.77215C151.261 10.1402 151.333 10.4602 151.477 10.7322C151.629 10.9962 151.829 11.2002 152.077 11.3442C152.325 11.4882 152.605 11.5602 152.917 11.5602ZM154.609 13.0002V11.6802L154.645 9.76015L154.525 7.85215V4.09615H156.397V13.0002H154.609ZM161.334 13.0962C160.598 13.0962 159.95 12.9522 159.39 12.6642C158.838 12.3762 158.41 11.9842 158.106 11.4882C157.802 10.9842 157.65 10.4122 157.65 9.77215C157.65 9.12415 157.798 8.55215 158.094 8.05615C158.398 7.55215 158.81 7.16015 159.33 6.88015C159.85 6.59215 160.438 6.44815 161.094 6.44815C161.726 6.44815 162.294 6.58415 162.798 6.85615C163.31 7.12015 163.714 7.50415 164.01 8.00815C164.306 8.50415 164.454 9.10015 164.454 9.79615C164.454 9.86815 164.45 9.95215 164.442 10.0482C164.434 10.1362 164.426 10.2202 164.418 10.3002H159.174V9.20815H163.434L162.714 9.53215C162.714 9.19615 162.646 8.90415 162.51 8.65615C162.374 8.40815 162.186 8.21615 161.946 8.08015C161.706 7.93615 161.426 7.86415 161.106 7.86415C160.786 7.86415 160.502 7.93615 160.254 8.08015C160.014 8.21615 159.826 8.41215 159.69 8.66815C159.554 8.91615 159.486 9.21215 159.486 9.55615V9.84415C159.486 10.1962 159.562 10.5082 159.714 10.7802C159.874 11.0442 160.094 11.2482 160.374 11.3922C160.662 11.5282 160.998 11.5962 161.382 11.5962C161.726 11.5962 162.026 11.5442 162.282 11.4402C162.546 11.3362 162.786 11.1802 163.002 10.9722L163.998 12.0522C163.702 12.3882 163.33 12.6482 162.882 12.8322C162.434 13.0082 161.918 13.0962 161.334 13.0962ZM172.914 13.0962C172.346 13.0962 171.858 12.9762 171.45 12.7362C171.042 12.4962 170.73 12.1322 170.514 11.6442C170.298 11.1482 170.19 10.5242 170.19 9.77215C170.19 9.01215 170.302 8.38815 170.526 7.90015C170.758 7.41215 171.078 7.04815 171.486 6.80815C171.894 6.56815 172.37 6.44815 172.914 6.44815C173.522 6.44815 174.066 6.58415 174.546 6.85615C175.034 7.12815 175.418 7.51215 175.698 8.00815C175.986 8.50415 176.13 9.09215 176.13 9.77215C176.13 10.4442 175.986 11.0282 175.698 11.5242C175.418 12.0202 175.034 12.4082 174.546 12.6882C174.066 12.9602 173.522 13.0962 172.914 13.0962ZM169.098 13.0002V4.09615H170.97V7.85215L170.85 9.76015L170.886 11.6802V13.0002H169.098ZM172.59 11.5602C172.902 11.5602 173.178 11.4882 173.418 11.3442C173.666 11.2002 173.862 10.9962 174.006 10.7322C174.158 10.4602 174.234 10.1402 174.234 9.77215C174.234 9.39615 174.158 9.07615 174.006 8.81215C173.862 8.54815 173.666 8.34415 173.418 8.20015C173.178 8.05615 172.902 7.98415 172.59 7.98415C172.278 7.98415 171.998 8.05615 171.75 8.20015C171.502 8.34415 171.306 8.54815 171.162 8.81215C171.018 9.07615 170.946 9.39615 170.946 9.77215C170.946 10.1402 171.018 10.4602 171.162 10.7322C171.306 10.9962 171.502 11.2002 171.75 11.3442C171.998 11.4882 172.278 11.5602 172.59 11.5602ZM178.024 15.4242C177.688 15.4242 177.356 15.3722 177.028 15.2682C176.7 15.1642 176.432 15.0202 176.224 14.8362L176.908 13.5042C177.052 13.6322 177.216 13.7322 177.4 13.8042C177.592 13.8762 177.78 13.9122 177.964 13.9122C178.228 13.9122 178.436 13.8482 178.588 13.7202C178.748 13.6002 178.892 13.3962 179.02 13.1082L179.356 12.3162L179.5 12.1122L181.816 6.54415H183.616L180.7 13.3962C180.492 13.9162 180.252 14.3242 179.98 14.6202C179.716 14.9162 179.42 15.1242 179.092 15.2442C178.772 15.3642 178.416 15.4242 178.024 15.4242ZM179.128 13.2522L176.248 6.54415H178.18L180.412 11.9442L179.128 13.2522Z" fill="white"/>
<path d="M98 24H5C2.23858 24 0 26.2386 0 29V111C0 113.761 2.23858 116 5 116H98C100.761 116 103 113.761 103 111V29C103 26.2386 100.761 24 98 24Z" fill="#454849"/>
<mask id="mask0_1_235" style="mask-type:luminance" maskUnits="userSpaceOnUse" x="22" y="49" width="60" height="42">
<path d="M82 49H22V91H82V49Z" fill="white"/>
</mask>
<g mask="url(#mask0_1_235)">
<path d="M72.1383 50.4672C72.153 50.5112 72.1677 50.5553 72.1828 50.6006C72.2123 50.6006 72.2417 50.6006 72.272 50.6006C72.3467 50.8931 72.3738 51.158 72.3724 51.4592C72.3725 51.5036 72.3727 51.548 72.3728 51.5938C72.3732 51.7419 72.3729 51.8899 72.3726 52.038C72.3727 52.1445 72.3729 52.251 72.373 52.3574C72.3734 52.6161 72.3733 52.8748 72.3731 53.1334C72.3729 53.3437 72.3729 53.554 72.373 53.7643C72.373 53.8092 72.373 53.8092 72.373 53.8551C72.373 53.916 72.3731 53.9769 72.3731 54.0379C72.3733 54.6083 72.3731 55.1788 72.3726 55.7492C72.3722 56.2383 72.3723 56.7275 72.3727 57.2166C72.3732 57.7852 72.3733 58.3539 72.3731 58.9225C72.373 58.9832 72.373 59.0438 72.373 59.1045C72.373 59.1343 72.373 59.1641 72.3729 59.1949C72.3729 59.4049 72.373 59.6149 72.3732 59.8248C72.3735 60.1075 72.3733 60.3902 72.3728 60.6729C72.3727 60.7767 72.3727 60.8804 72.3729 60.9842C72.3731 61.1258 72.3729 61.2673 72.3724 61.409C72.3726 61.45 72.3728 61.4911 72.373 61.5334C72.3713 61.8083 72.3665 62.0621 72.1745 62.2757C72.008 62.368 71.9266 62.3731 71.7373 62.3451C71.581 62.2845 71.4377 62.2049 71.2918 62.1227C71.2444 62.0963 71.1969 62.07 71.148 62.0428C70.8991 61.9025 70.653 61.7584 70.4087 61.6103C69.8634 61.2326 69.8634 61.2326 69.2424 61.144C69.0685 61.253 68.9785 61.3436 68.8931 61.5282C68.7943 61.7323 68.6776 61.9223 68.5574 62.1144C68.396 62.3747 68.2424 62.6364 68.0986 62.9068C68.0386 63.014 67.9727 63.1142 67.903 63.2155C67.7887 63.3825 67.6992 63.5537 67.6108 63.7355C67.4829 63.99 67.3364 64.2345 67.193 64.4805C67.1699 64.5202 67.1469 64.5598 67.123 64.6007C66.8598 65.0526 66.5957 65.5039 66.3298 65.9542C66.104 66.3367 65.8814 66.7209 65.6664 67.1096C65.5184 67.3759 65.3657 67.6395 65.2132 67.9032C65.1703 67.9777 65.1703 67.9777 65.1265 68.0536C64.9567 68.3472 64.7843 68.639 64.609 68.9292C64.378 69.315 64.1521 69.7032 63.9351 70.097C63.7536 70.4262 63.5612 70.7461 63.3615 71.0646C63.228 71.2815 63.0983 71.4995 62.9772 71.7236C62.7801 72.088 62.5718 72.4461 62.3655 72.8054C62.2416 73.0212 62.1179 73.2371 61.9943 73.453C61.9713 73.4932 61.9482 73.5333 61.9244 73.5747C61.9032 73.6118 61.882 73.6489 61.8601 73.687C61.8414 73.7198 61.8226 73.7525 61.8033 73.7862C61.7718 73.8421 61.7418 73.8989 61.713 73.9562C61.6836 73.9562 61.6543 73.9562 61.6239 73.9562C61.616 73.9943 61.616 73.9943 61.6078 74.0332C61.5774 74.1413 61.5351 74.2279 61.4816 74.3266C61.4611 74.3644 61.4405 74.4022 61.4194 74.4413C61.3968 74.4821 61.3743 74.523 61.351 74.5652C61.3275 74.6082 61.3038 74.6513 61.2795 74.6956C61.0713 75.0716 60.8509 75.4397 60.6278 75.8072C60.4163 76.1565 60.2131 76.5097 60.0132 76.8658C59.8142 77.2199 59.6098 77.5709 59.4043 77.9213C59.2073 78.2573 59.0131 78.5946 58.8208 78.9332C58.696 79.1524 58.5678 79.3691 58.4375 79.585C58.3321 79.7611 58.2308 79.9393 58.1293 80.1177C57.631 80.9912 57.1257 81.8606 56.621 82.7305C56.5622 82.8317 56.5035 82.933 56.4447 83.0343C56.425 83.0684 56.4052 83.1024 56.3849 83.1374C56.2646 83.3449 56.1446 83.5525 56.0248 83.7602C55.7637 84.2128 55.5023 84.6652 55.236 85.1148C55.0974 85.3496 54.9619 85.5861 54.8269 85.8231C54.612 86.2004 54.393 86.5751 54.1726 86.9492C53.8849 87.4376 53.6013 87.9282 53.3205 88.4205C53.0918 88.8215 52.8613 89.2215 52.6285 89.6201C52.5956 89.6772 52.5633 89.7347 52.5315 89.7924C52.4237 89.988 52.3382 90.0941 52.1343 90.194C51.932 90.2228 51.7968 90.2051 51.6283 90.0867C51.4592 89.9233 51.3581 89.7028 51.246 89.4988C51.2168 89.4469 51.1876 89.395 51.1583 89.3432C51.0975 89.2355 51.0371 89.1277 50.9768 89.0197C50.8382 88.7719 50.6952 88.5266 50.5526 88.281C50.497 88.1846 50.4412 88.0882 50.3856 87.9918C50.3443 87.9203 50.3443 87.9203 50.3021 87.8473C48.0466 83.9435 48.0466 83.9435 47.9631 83.7989C47.9074 83.7026 47.8517 83.6063 47.7961 83.51C47.6563 83.2679 47.5164 83.0259 47.3767 82.7838C47.2383 82.5437 47.0995 82.3038 46.9607 82.0641C46.8744 81.9147 46.7885 81.7652 46.7027 81.6156C46.6467 81.5186 46.5907 81.4215 46.5346 81.3244C46.5089 81.2794 46.4832 81.2344 46.4568 81.1881C46.4206 81.1257 46.4206 81.1257 46.3837 81.062C46.3628 81.0256 46.3418 80.9891 46.3202 80.9516C46.2302 80.8172 46.136 80.7031 45.9888 80.6321C45.8516 80.6279 45.785 80.6843 45.6741 80.7628C45.5939 80.8674 45.5939 80.8674 45.5282 80.9912C45.5019 81.0375 45.4757 81.0837 45.4487 81.1314C45.4211 81.1813 45.3935 81.2312 45.3651 81.2827C45.3356 81.3351 45.306 81.3874 45.2764 81.4397C45.2156 81.5472 45.155 81.6548 45.0945 81.7625C44.9639 81.9945 44.8289 82.2238 44.694 82.4533C44.4785 82.8214 44.2641 83.1904 44.0508 83.5598C44.023 83.6079 43.9953 83.656 43.9666 83.7056C43.827 83.9475 43.6875 84.1895 43.5482 84.4317C43.237 84.972 42.9219 85.5097 42.6026 86.0452C42.3717 86.4336 42.1464 86.8249 41.9228 87.2175C41.7049 87.6002 41.4834 87.9805 41.258 88.3589C41.0374 88.7297 40.8221 89.1035 40.608 89.4781C40.4783 89.7039 40.3469 89.9285 40.2106 90.1503C40.1871 90.1887 40.1636 90.2271 40.1394 90.2667C40.0144 90.4336 39.908 90.5387 39.6972 90.5722C39.6438 90.5722 39.5904 90.5723 39.5353 90.5723C39.5053 90.5727 39.4754 90.5729 39.4445 90.5732C39.3438 90.5739 39.2431 90.5733 39.1424 90.5727C39.0696 90.573 38.9968 90.5733 38.9239 90.5737C38.7236 90.5745 38.5233 90.5742 38.323 90.5738C38.107 90.5735 37.8911 90.5741 37.6751 90.5748C37.252 90.5757 36.8289 90.5757 36.4058 90.5753C36.062 90.5751 35.7182 90.5751 35.3744 90.5754C35.3011 90.5754 35.3011 90.5754 35.2263 90.5755C35.127 90.5756 35.0277 90.5757 34.9284 90.5757C33.9968 90.5765 33.0652 90.5761 32.1336 90.5754C31.2807 90.5747 30.4278 90.5754 29.5748 90.5766C28.6997 90.578 27.8245 90.5785 26.9493 90.578C26.8503 90.578 26.7514 90.5779 26.6525 90.5779C26.6038 90.5778 26.5551 90.5778 26.505 90.5778C26.1615 90.5777 25.818 90.5782 25.4745 90.5788C25.056 90.5796 24.6376 90.5796 24.2192 90.5786C24.0056 90.5781 23.792 90.5779 23.5784 90.5788C23.383 90.5795 23.1877 90.5792 22.9924 90.5781C22.9215 90.5779 22.8507 90.5781 22.7798 90.5786C22.6838 90.5793 22.5879 90.5787 22.4919 90.5777C22.4385 90.5777 22.3851 90.5777 22.3301 90.5777C22.1951 90.5499 22.1951 90.5499 22.0887 90.4475C21.9925 90.2867 21.9851 90.1517 22.0169 89.9715C22.0598 89.8476 22.1179 89.7359 22.1811 89.6212C22.1973 89.5905 22.2135 89.5598 22.2301 89.5282C22.2624 89.4669 22.2949 89.4059 22.3277 89.3449C22.3898 89.2287 22.4485 89.1109 22.5069 88.9928C22.5366 88.9335 22.5663 88.8742 22.596 88.8148C22.6254 88.8148 22.6548 88.8148 22.6851 88.8148C22.6932 88.7891 22.7013 88.7633 22.7097 88.7366C22.7761 88.5305 22.8492 88.3389 22.9525 88.1475C22.9819 88.1475 23.0113 88.1475 23.0416 88.1475C23.0539 88.1149 23.0662 88.0822 23.079 88.0485C23.1268 87.9344 23.18 87.8356 23.2448 87.7305C23.2683 87.6921 23.2917 87.6538 23.3158 87.6143C23.3565 87.5479 23.3565 87.5479 23.398 87.4802C23.6989 86.9845 23.9886 86.4885 24.2445 85.9677C24.2739 85.9677 24.3033 85.9677 24.3336 85.9677C24.3777 85.8576 24.3777 85.8576 24.4227 85.7453C24.4521 85.7453 24.4815 85.7453 24.5118 85.7453C24.5228 85.7196 24.5338 85.6939 24.5452 85.6674C24.6633 85.4551 24.8027 85.3655 25.0309 85.2837C25.2216 85.233 25.4111 85.238 25.6073 85.2396C25.6537 85.2395 25.7002 85.2394 25.748 85.2393C25.9031 85.239 26.0581 85.2396 26.2132 85.2402C26.3246 85.2401 26.436 85.2401 26.5474 85.2399C26.787 85.2397 27.0267 85.2398 27.2663 85.2404C27.6131 85.2411 27.96 85.2408 28.3068 85.2403C28.8701 85.2395 29.4334 85.239 29.9967 85.239C30.0304 85.239 30.0641 85.239 30.0988 85.239C30.4746 85.2391 30.8504 85.2392 31.2262 85.2395C31.26 85.2396 31.2938 85.2396 31.3286 85.2396C31.3624 85.2396 31.3961 85.2397 31.431 85.2397C31.499 85.2398 31.5671 85.2398 31.6352 85.2399C31.6688 85.2399 31.7025 85.24 31.7371 85.24C32.2984 85.2404 32.8596 85.24 33.4209 85.2389C33.7668 85.2382 34.1127 85.2383 34.4586 85.2394C34.7237 85.2401 34.9887 85.2397 35.2538 85.2388C35.3624 85.2387 35.471 85.239 35.5796 85.2396C35.728 85.2404 35.8763 85.2398 36.0246 85.239C36.0675 85.2395 36.1105 85.2401 36.1547 85.2407C36.4382 85.237 36.636 85.1766 36.8528 84.989C36.9205 84.9032 36.9743 84.8158 37.031 84.7221C37.0604 84.7221 37.0898 84.7221 37.1201 84.7221C37.1357 84.6782 37.1357 84.6782 37.1516 84.6334C37.2265 84.4594 37.321 84.3007 37.4181 84.1382C37.438 84.1045 37.4579 84.0709 37.4784 84.0362C37.5892 83.8499 37.7032 83.6663 37.8218 83.4848C37.9501 83.2866 38.0538 83.0823 38.1568 82.8701C38.2674 82.655 38.3914 82.4486 38.5153 82.241C38.6235 82.0598 38.7278 81.8777 38.827 81.6914C38.9013 81.5527 38.9791 81.4236 39.072 81.2966C39.1747 81.1703 39.1747 81.1703 39.2141 81.0296C39.2435 81.0296 39.2729 81.0296 39.3032 81.0296C39.3082 81.0051 39.3132 80.9805 39.3184 80.9553C39.3528 80.8339 39.4042 80.7303 39.4619 80.6182C39.4821 80.5784 39.5024 80.5388 39.5233 80.4979C39.5389 80.4678 39.5545 80.4378 39.5705 80.4069C39.5999 80.4069 39.6293 80.4069 39.6596 80.4069C39.6714 80.3764 39.6832 80.3459 39.6954 80.3146C39.7554 80.168 39.8211 80.0249 39.8879 79.8813C39.9119 79.8297 39.9359 79.778 39.9607 79.7247C39.9789 79.6856 39.9972 79.6464 40.016 79.6061C40.0454 79.6061 40.0748 79.6061 40.1051 79.6061C40.1151 79.5706 40.1251 79.5352 40.1354 79.4987C40.211 79.2937 40.3145 79.1115 40.4225 78.9221C40.4434 78.8851 40.4642 78.8481 40.4858 78.81C40.5368 78.7193 40.5882 78.6288 40.6398 78.5384C40.6692 78.5384 40.6985 78.5384 40.7288 78.5384C40.7337 78.5133 40.7385 78.4881 40.7435 78.4623C40.7781 78.3446 40.8304 78.2583 40.8959 78.1547C40.9897 78.0029 41.0747 77.8512 41.1521 77.6903C41.2244 77.5419 41.3034 77.4065 41.3971 77.2705C41.4892 77.1371 41.5664 77.005 41.6366 76.859C41.7441 76.6375 41.8706 76.4319 42.001 76.2232C42.4837 75.4478 42.4837 75.4478 42.9053 74.6387C42.9612 74.5249 43.0192 74.4173 43.0901 74.3121C43.1196 74.3121 43.149 74.3121 43.1793 74.3121C43.1931 74.2488 43.1931 74.2488 43.2071 74.1843C43.2743 73.9513 43.4068 73.7591 43.5357 73.5559C43.7373 73.2314 43.9366 72.9057 44.1315 72.5771C44.1506 72.5452 44.1698 72.5133 44.1895 72.4804C44.2823 72.3233 44.3653 72.1714 44.4267 71.9988C44.4561 71.9988 44.4855 71.9988 44.5158 71.9988C44.5199 71.9676 44.5239 71.9363 44.528 71.9041C44.5671 71.7497 44.6347 71.6455 44.7219 71.5123C44.8911 71.249 45.0302 70.9781 45.1643 70.6955C45.2287 70.5752 45.2287 70.5752 45.3177 70.5308C45.3444 70.483 45.3711 70.4353 45.3985 70.3862C45.4874 70.2284 45.5714 70.1072 45.7187 69.9969C45.9359 69.9625 46.0228 69.966 46.2116 70.0775C46.364 70.2232 46.4683 70.4035 46.5772 70.5824C46.647 70.6967 46.7204 70.807 46.7963 70.9172C47.0999 71.369 47.0999 71.369 47.0999 71.5539C47.1292 71.5539 47.1587 71.5539 47.1889 71.5539C47.211 71.5989 47.233 71.6439 47.2558 71.6902C47.5644 72.3109 47.5644 72.3109 47.9406 72.8917C48 72.9931 48.018 73.0844 48.0354 73.2C48.0649 73.2 48.0943 73.2 48.1246 73.2C48.1328 73.2536 48.1328 73.2536 48.1413 73.3084C48.1505 73.346 48.1596 73.3837 48.1691 73.4224C48.1985 73.4371 48.2279 73.4517 48.2582 73.4669C48.3176 73.5633 48.3735 73.6597 48.4281 73.7588C48.4602 73.8162 48.4924 73.8736 48.5246 73.9308C48.548 73.9723 48.548 73.9723 48.5717 74.0146C48.6225 74.1034 48.6763 74.1899 48.7316 74.276C48.8434 74.4511 48.9404 74.6334 49.0389 74.8162C49.0967 74.9205 49.1574 75.021 49.2216 75.1212C49.363 75.343 49.493 75.5663 49.5502 75.8247C49.5797 75.8247 49.609 75.8247 49.6393 75.8247C49.6541 75.8981 49.6687 75.9715 49.6839 76.0471C49.7133 76.0471 49.7427 76.0471 49.773 76.0471C49.7877 76.1205 49.8024 76.194 49.8176 76.2696C49.8469 76.2696 49.8764 76.2696 49.9067 76.2696C49.9514 76.3566 49.9959 76.4437 50.0403 76.5309C50.0651 76.5794 50.09 76.6279 50.1155 76.6779C50.174 76.8034 50.174 76.8034 50.174 76.8924C50.2033 76.8924 50.2328 76.8924 50.2631 76.8924C50.3967 77.1482 50.3967 77.1482 50.3967 77.2483C50.4261 77.2483 50.4555 77.2483 50.4858 77.2483C50.5069 77.2914 50.528 77.3345 50.5497 77.379C50.7284 77.7417 50.915 78.0975 51.1187 78.447C51.2432 78.6628 51.2432 78.6628 51.2432 78.7608C51.2726 78.7608 51.302 78.7608 51.3323 78.7608C51.466 79.0166 51.466 79.0166 51.466 79.1167C51.4954 79.1167 51.5248 79.1167 51.5551 79.1167C51.5702 79.1451 51.5852 79.1735 51.6007 79.2028C51.6305 79.2579 51.6305 79.2579 51.6609 79.3141C51.6805 79.3507 51.7002 79.3874 51.7204 79.4252C51.7705 79.5231 51.7705 79.5231 51.867 79.5616C52.0006 79.5764 52.0006 79.5764 52.1343 79.5616C52.1637 79.5175 52.1931 79.4735 52.2234 79.4281C52.2528 79.4281 52.2822 79.4281 52.3125 79.4281C52.3307 79.3801 52.3307 79.3801 52.3494 79.3311C52.4007 79.2078 52.4594 79.0947 52.5248 78.9782C52.5618 78.9123 52.5618 78.9123 52.5994 78.845C52.626 78.798 52.6526 78.7509 52.68 78.7024C52.7217 78.6285 52.7217 78.6285 52.7642 78.553C53.002 78.132 53.2453 77.7143 53.49 77.2973C53.8724 76.6455 54.2496 75.9908 54.6208 75.3325C54.8363 74.9506 55.0565 74.5718 55.2801 74.1945C55.6123 73.6328 55.9418 73.0699 56.2566 72.4983C56.3691 72.2949 56.4855 72.0946 56.6062 71.8959C56.9474 71.3342 57.2685 70.7608 57.5887 70.187C57.8006 69.8073 58.0126 69.4295 58.244 69.0613C58.4829 68.6813 58.7128 68.2963 58.9257 67.9012C59.2023 67.3903 59.4958 66.889 59.7897 66.3879C59.9592 66.0986 60.1251 65.8077 60.288 65.5147C60.3806 65.3494 60.4786 65.1894 60.5825 65.031C60.6984 64.8535 60.7963 64.671 60.8889 64.4805C61.0004 64.2515 61.1238 64.037 61.2637 63.824C61.5824 63.3293 61.8834 62.8208 62.1586 62.3007C62.3193 61.9994 62.4889 61.7049 62.6662 61.4132C62.8225 61.1547 62.9689 60.8912 63.1147 60.6267C63.2345 60.4098 63.3579 60.1958 63.4882 59.9849C63.5396 59.8986 63.585 59.8108 63.6288 59.7204C63.6582 59.7204 63.6876 59.7204 63.7179 59.7204C63.7215 59.6904 63.7251 59.6605 63.7289 59.6295C63.7726 59.4582 63.8533 59.3237 63.9435 59.1727C63.9602 59.144 63.9771 59.1153 63.9944 59.0857C64.0356 59.0154 64.0772 58.9452 64.1189 58.8752C64.1483 58.8752 64.1777 58.8752 64.208 58.8752C64.3247 58.5327 64.3247 58.5327 64.2971 58.1829C64.2026 58.0679 64.1151 58.0111 63.9852 57.9409C63.9852 57.9116 63.9852 57.8823 63.9852 57.852C63.9485 57.8419 63.9117 57.8318 63.8738 57.8214C63.7201 57.7639 63.603 57.6941 63.4664 57.6056C63.3487 57.5327 63.228 57.4686 63.1053 57.4043C62.8353 57.2602 62.57 57.109 62.3061 56.9539C62.2667 56.9312 62.2272 56.9084 62.1865 56.885C62.1311 56.8521 62.1311 56.8521 62.0745 56.8186C62.0413 56.7991 62.0081 56.7796 61.974 56.7596C61.8482 56.6619 61.8093 56.5638 61.7854 56.4089C61.8093 56.2457 61.8643 56.1927 61.9804 56.0725C62.1328 55.9686 62.2929 55.8792 62.4537 55.7889C62.5009 55.7619 62.5481 55.735 62.5968 55.7072C62.6969 55.65 62.7971 55.593 62.8974 55.5361C63.1419 55.3973 63.3853 55.2565 63.6288 55.116C63.7262 55.06 63.8237 55.0039 63.9211 54.9478C64.1955 54.7898 64.4692 54.6306 64.7426 54.471C65.1618 54.2263 65.5821 53.9837 66.003 53.7416C66.326 53.5557 66.6484 53.3687 66.9703 53.1809C67.5819 52.824 68.1959 52.4709 68.8098 52.1178C69.3396 51.8131 69.8693 51.508 70.398 51.2012C70.4404 51.1767 70.4828 51.1522 70.5265 51.1269C70.7801 50.9794 71.029 50.8261 71.2755 50.667C71.5642 50.4852 71.7989 50.4488 72.1383 50.4672Z" fill="white"/>
<path d="M46.1938 49.104C46.4068 49.3309 46.5539 49.5979 46.703 49.8685C46.775 49.9987 46.8497 50.1261 46.9273 50.2531C47.0419 50.4422 47.1479 50.6351 47.2529 50.8297C47.3509 51.0078 47.4545 51.1824 47.5577 51.3576C47.6548 51.5253 47.7466 51.6957 47.8386 51.8664C47.9146 52.0025 47.9981 52.1327 48.0854 52.2619C48.1246 52.3356 48.1246 52.3356 48.1246 52.4691C48.1541 52.4691 48.1835 52.4691 48.2138 52.4691C48.2358 52.5159 48.2579 52.5627 48.2806 52.6109C48.3769 52.8035 48.4889 52.9842 48.603 53.1667C48.7179 53.3513 48.8264 53.5387 48.9322 53.7286C49.1055 54.0396 49.2841 54.3473 49.464 54.6545C49.5042 54.7233 49.5042 54.7233 49.5453 54.7934C49.6606 54.9908 49.7762 55.188 49.8923 55.3849C49.925 55.4408 49.9577 55.4967 49.9903 55.5526C50.0177 55.5992 50.0452 55.6458 50.0735 55.6938C50.1295 55.8056 50.1295 55.8056 50.1295 55.939C50.1589 55.939 50.1883 55.939 50.2186 55.939C50.2329 55.966 50.2472 55.993 50.2619 56.0208C50.5605 56.5832 50.8689 57.1365 51.2056 57.6771C51.3517 57.9122 51.489 58.1499 51.6203 58.3934C51.7429 58.6185 51.8722 58.8397 52.0007 59.0615C52.0295 59.1112 52.0583 59.1609 52.0879 59.2121C52.2346 59.4656 52.382 59.7186 52.5299 59.9713C52.5713 60.0421 52.5713 60.0421 52.6136 60.1142C52.6655 60.2027 52.7175 60.2912 52.7695 60.3797C52.8875 60.5808 53.003 60.7828 53.1142 60.9878C53.2508 61.2397 53.3951 61.4866 53.5405 61.7335C53.7787 62.1393 54.015 62.5462 54.2442 62.9572C54.3543 63.1546 54.466 63.3496 54.5863 63.5409C54.856 63.977 54.9964 64.3169 54.8966 64.8364C54.8308 65.0163 54.7626 65.1925 54.5848 65.2813C54.5719 65.3198 54.5591 65.3583 54.5458 65.398C54.5007 65.5332 54.4444 65.6451 54.3718 65.7671C54.3027 65.8846 54.2378 66.0041 54.1726 66.1238C54.1379 66.1876 54.1379 66.1876 54.1024 66.2529C54.0851 66.2845 54.0679 66.3163 54.0501 66.349C54.0207 66.349 53.9913 66.349 53.961 66.349C53.9501 66.386 53.9393 66.423 53.9281 66.4611C53.8636 66.6388 53.7795 66.7944 53.6853 66.9579C53.6676 66.9892 53.6498 67.0205 53.6315 67.0527C53.5039 67.2754 53.3675 67.4913 53.2275 67.7063C53.163 67.8106 53.1088 67.915 53.0561 68.0256C52.9547 68.2351 52.8364 68.4316 52.7136 68.6289C52.6858 68.6739 52.6858 68.6739 52.6575 68.7197C52.3167 69.2609 52.3167 69.2609 52.0898 69.3296C51.9589 69.3491 51.9589 69.3491 51.8225 69.3296C51.5927 69.1439 51.472 68.8989 51.3324 68.6428C51.2809 68.5501 51.2294 68.4574 51.1777 68.3648C51.1385 68.2943 51.1385 68.2943 51.0985 68.2225C50.9801 68.0122 50.8573 67.8046 50.7338 67.5974C50.5319 67.258 50.3313 66.918 50.1323 66.5769C50.1064 66.5326 50.0805 66.4882 50.0539 66.4425C50.0013 66.3525 49.9488 66.2624 49.8963 66.1724C49.7663 65.9495 49.636 65.7266 49.5058 65.5037C49.4538 65.4147 49.4018 65.3258 49.3499 65.2368C49.3113 65.1707 49.3113 65.1707 49.2719 65.1034C47.7905 62.5676 47.7905 62.5676 47.7125 62.4341C47.6607 62.3453 47.6088 62.2566 47.557 62.1679C47.3978 61.8954 47.2387 61.6229 47.0796 61.3504C47.0269 61.2601 46.9741 61.1698 46.9212 61.0796C46.8026 60.877 46.6846 60.6743 46.5687 60.4703C46.5486 60.4354 46.5286 60.4005 46.508 60.3646C46.4715 60.301 46.4354 60.2371 46.3997 60.1731C46.2993 59.9989 46.2071 59.8655 46.0307 59.7649C45.8913 59.754 45.8913 59.754 45.7634 59.8094C45.6762 59.9005 45.6762 59.9005 45.6103 60.0291C45.5959 60.0539 45.5816 60.0787 45.5668 60.1044C45.5329 60.1634 45.4994 60.2227 45.4661 60.2822C45.3724 60.4494 45.2758 60.615 45.1797 60.7809C45.1224 60.88 45.0653 60.979 45.0083 61.0781C44.8036 61.4337 44.5953 61.787 44.385 62.1394C44.1405 62.5496 43.9003 62.9619 43.6639 63.3767C43.2345 64.1299 42.7988 64.8792 42.3503 65.6213C42.1712 65.9187 41.9983 66.2194 41.8266 66.5212C41.5798 66.9544 41.3277 67.3846 41.0757 67.8149C40.9451 68.0379 40.8148 68.2611 40.6844 68.4844C40.5291 68.7503 40.3737 69.0162 40.2182 69.282C39.949 69.742 39.681 70.2026 39.4147 70.6642C39.072 71.2581 38.7261 71.8501 38.3798 72.4418C38.3024 72.5741 38.225 72.7062 38.1477 72.8385C38.122 72.8824 38.0963 72.9263 38.0699 72.9716C37.8802 73.2963 37.6922 73.622 37.5045 73.9479C37.2764 74.3437 37.0451 74.7372 36.8111 75.1296C36.5357 75.5916 36.2667 76.0568 36.0004 76.524C35.7345 76.9904 35.4642 77.454 35.1927 77.9171C35.0857 78.0996 34.9791 78.2823 34.8725 78.465C34.6606 78.828 34.4485 79.1909 34.2354 79.5532C34.2174 79.5841 34.1993 79.6149 34.1806 79.6467C34.1087 79.7688 34.0357 79.8886 33.957 80.0064C33.9276 80.0064 33.8982 80.0064 33.8679 80.0064C33.8679 80.0358 33.8679 80.0651 33.8679 80.0954C33.5754 80.2259 33.3327 80.248 33.0145 80.2462C32.9659 80.2463 32.9174 80.2466 32.8673 80.2468C32.7075 80.2475 32.5477 80.247 32.3879 80.2466C32.2764 80.2466 32.1649 80.2468 32.0534 80.247C31.82 80.2471 31.5866 80.2469 31.3532 80.2463C31.0841 80.2455 30.8151 80.2458 30.546 80.2465C30.2862 80.2472 30.0264 80.2471 29.7666 80.2467C29.6564 80.2467 29.5463 80.2468 29.4362 80.2471C29.2821 80.2474 29.1281 80.2469 28.974 80.2462C28.9288 80.2464 28.8836 80.2467 28.8369 80.247C28.5674 80.2446 28.3657 80.2101 28.1206 80.0954C28.022 79.994 27.9889 79.9299 27.9841 79.7882C28.0069 79.4915 28.1178 79.2857 28.2738 79.0361C28.3183 78.9626 28.3628 78.8891 28.4073 78.8156C28.4271 78.7836 28.4469 78.7517 28.4672 78.7188C28.5196 78.6308 28.5661 78.5415 28.6107 78.4494C28.6401 78.4494 28.6695 78.4494 28.6998 78.4494C28.711 78.4116 28.7222 78.3737 28.7337 78.3347C28.7926 78.1722 28.8705 78.0298 28.9588 77.8822C29.1059 77.6312 29.2421 77.3772 29.3681 77.1148C29.3975 77.1148 29.4269 77.1148 29.4572 77.1148C29.4655 77.0763 29.4655 77.0763 29.4739 77.0369C29.5021 76.9358 29.5413 76.8512 29.5909 76.7589C29.6203 76.7589 29.6496 76.7589 29.68 76.7589C29.6892 76.724 29.6983 76.6891 29.7078 76.6532C29.7751 76.476 29.8639 76.3284 29.9631 76.1675C30.1705 75.8267 30.3508 75.4708 30.5264 75.1129C30.5559 75.1129 30.5853 75.1129 30.6156 75.1129C30.6268 75.0745 30.6381 75.0361 30.6497 74.9966C30.7075 74.8382 30.7807 74.7125 30.8717 74.5707C31.0094 74.3557 31.1336 74.1364 31.255 73.9119C31.3846 73.6758 31.5213 73.4438 31.657 73.2111C31.872 72.8407 32.0832 72.4696 32.2812 72.09C32.3613 71.9389 32.4457 71.791 32.5313 71.6429C32.5608 71.6429 32.5901 71.6429 32.6204 71.6429C32.6323 71.6039 32.6441 71.5649 32.6564 71.5248C32.7079 71.3808 32.7688 71.2617 32.8468 71.1304C32.8737 71.0849 32.9005 71.0394 32.9282 70.9926C32.9562 70.9457 32.9842 70.8988 33.013 70.8505C33.0682 70.7575 33.1232 70.6645 33.1782 70.5716C33.2047 70.5267 33.2313 70.482 33.2586 70.4358C33.3607 70.2614 33.4587 70.0849 33.556 69.9079C33.6208 69.7919 33.6859 69.6761 33.7509 69.5604C33.7664 69.5327 33.782 69.505 33.7979 69.4765C33.9516 69.2032 34.1104 68.9328 34.2688 68.6623C34.3209 68.5733 34.3728 68.4844 34.4248 68.3954C34.5288 68.2174 34.6327 68.0395 34.7367 67.8615C34.7621 67.8179 34.7877 67.7742 34.8139 67.7292C34.8682 67.6363 34.9225 67.5436 34.9769 67.4508C35.0043 67.4041 35.0316 67.3573 35.0599 67.3092C35.0845 67.2673 35.1091 67.2253 35.1344 67.1821C35.2032 67.0629 35.2697 66.9427 35.3354 66.8217C35.5859 66.3598 35.8523 65.907 36.1178 65.4537C36.3646 65.0321 36.6085 64.6088 36.8507 64.1845C37.0657 63.8081 37.2817 63.4322 37.4989 63.0569C37.7302 62.6572 37.9603 62.2568 38.1895 61.8558C38.4459 61.4071 38.7038 60.9591 38.9627 60.5118C39.1664 60.1596 39.3688 59.8067 39.5706 59.4535C39.827 59.0048 40.0848 58.557 40.3438 58.1097C40.5637 57.7294 40.7818 57.3481 40.9997 56.9666C41.2061 56.6052 41.4148 56.2451 41.6256 55.8862C41.8673 55.4745 42.1019 55.0594 42.3345 54.6425C42.4943 54.3565 42.6573 54.0728 42.8248 53.7912C43.0011 53.4942 43.1724 53.1944 43.3436 52.8945C43.6044 52.4378 43.8665 51.9818 44.1301 51.5267C44.2773 51.2726 44.4235 51.018 44.5685 50.7626C45.5026 49.1178 45.5026 49.1178 45.7578 49.0074C45.9295 48.9923 46.0542 48.9899 46.1938 49.104Z" fill="white"/>
<path d="M70.3563 69.9967C70.6326 70.2359 70.8043 70.5667 70.98 70.8809C71.0239 70.9581 71.0678 71.0354 71.1117 71.1127C71.157 71.1923 71.2021 71.272 71.2471 71.3518C71.3865 71.5981 71.5287 71.8427 71.6705 72.0876C71.7263 72.184 71.7819 72.2804 71.8376 72.3768C71.8652 72.4245 71.8928 72.4722 71.9212 72.5213C72.2275 73.0515 72.5337 73.5816 72.8401 74.1118C72.8676 74.1595 72.8952 74.2072 72.9236 74.2563C72.9794 74.3528 73.0351 74.4492 73.0908 74.5457C73.2294 74.7856 73.368 75.0255 73.5068 75.2653C73.7803 75.7379 74.0529 76.211 74.3237 76.6852C74.6131 77.1921 74.9056 77.6972 75.2008 78.2007C75.296 78.3632 75.3906 78.5261 75.4845 78.6894C75.5063 78.7273 75.5282 78.7653 75.5507 78.8043C75.5907 78.8738 75.6305 78.9435 75.6703 79.0131C75.7664 79.1803 75.867 79.3421 75.9755 79.5016C76.0766 79.6513 76.161 79.8004 76.2372 79.9645C76.3879 80.273 76.5568 80.569 76.73 80.8654C76.7563 80.9105 76.7826 80.9556 76.8097 81.0021C76.9263 81.2005 77.0444 81.3955 77.1754 81.5847C77.3054 81.7758 77.4049 81.9771 77.5061 82.1846C77.6133 82.3986 77.7355 82.6032 77.8578 82.8089C77.913 82.9025 77.9681 82.9961 78.0231 83.0898C78.0516 83.1383 78.0802 83.1868 78.1095 83.2368C78.2595 83.4935 78.4067 83.7518 78.5539 84.0101C78.8005 84.4424 79.0497 84.873 79.3013 85.3025C79.5508 85.7285 79.7976 86.156 80.0443 86.5836C80.1848 86.827 80.3258 87.0701 80.4669 87.3132C80.6033 87.5481 80.7389 87.7835 80.8734 88.0195C80.9834 88.2121 81.0946 88.4039 81.2074 88.5949C81.2446 88.6579 81.2817 88.721 81.3187 88.7841C81.4212 88.9588 81.5255 89.1325 81.6317 89.305C81.6769 89.3798 81.7221 89.4545 81.7673 89.5292C81.7889 89.5636 81.8106 89.598 81.8328 89.6334C81.9699 89.8623 82.0313 90.0157 81.9844 90.2827C81.9169 90.4141 81.8368 90.5072 81.7171 90.5941C81.5423 90.6393 81.3726 90.6354 81.1928 90.6323C81.1139 90.6328 81.114 90.6328 81.0335 90.6333C80.8899 90.6339 80.7464 90.633 80.6028 90.6316C80.4521 90.6303 80.3015 90.6306 80.1508 90.6308C79.8978 90.6307 79.6449 90.6295 79.3919 90.6274C79.0999 90.6251 78.808 90.6244 78.516 90.6248C78.2346 90.6251 77.9531 90.6244 77.6717 90.6232C77.5522 90.6226 77.4326 90.6224 77.3131 90.6225C77.146 90.6223 76.979 90.6209 76.8119 90.6193C76.7626 90.6194 76.7133 90.6196 76.6625 90.6197C76.3127 90.6144 76.111 90.5575 75.8582 90.3043C75.6963 90.0936 75.5713 89.8571 75.4408 89.6265C75.3963 89.5487 75.3518 89.4708 75.3073 89.393C75.2613 89.3126 75.2154 89.232 75.1695 89.1515C75.0291 88.9051 74.8868 88.6598 74.7447 88.4143C74.689 88.3179 74.6333 88.2215 74.5776 88.1251C74.5501 88.0774 74.5225 88.0297 74.4941 87.9806C72.9069 85.2334 72.9069 85.2334 72.8233 85.0888C72.7678 84.9927 72.7123 84.8965 72.6567 84.8004C72.5152 84.5556 72.3738 84.3107 72.2323 84.0658C72.175 83.9667 72.1177 83.8674 72.0604 83.7682C72.0326 83.72 72.0048 83.6719 71.9762 83.6223C71.7886 83.2977 71.6006 82.9734 71.4124 82.6492C71.2989 82.4537 71.1865 82.2576 71.0747 82.061C71.0313 81.9855 70.9879 81.9099 70.9444 81.8345C70.9038 81.7636 70.8633 81.6926 70.8229 81.6216C70.7468 81.4879 70.6699 81.3546 70.593 81.2213C70.5564 81.1566 70.5564 81.1566 70.5191 81.0906C70.4955 81.0501 70.472 81.0095 70.4477 80.9678C70.4164 80.9133 70.4164 80.9133 70.3845 80.8577C70.2994 80.7465 70.2122 80.6936 70.089 80.6291C69.911 80.7215 69.824 80.8043 69.7252 80.9779C69.7003 81.021 69.6754 81.0642 69.6497 81.1087C69.6237 81.1551 69.5978 81.2014 69.571 81.2491C69.53 81.3208 69.53 81.3208 69.4883 81.3938C69.2764 81.7657 69.0692 82.1401 68.8641 82.5158C68.5921 83.0139 68.3093 83.5059 68.0271 83.9983C67.7868 84.4179 67.5487 84.8388 67.3107 85.2598C67.1899 85.4735 67.069 85.6872 66.948 85.9008C66.8997 85.986 66.8515 86.0713 66.8032 86.1566C66.3206 87.0092 65.8379 87.8619 65.3553 88.7146C65.3313 88.7568 65.3074 88.7991 65.2828 88.8427C65.2349 88.9272 65.187 89.0117 65.1391 89.0962C65.0119 89.3207 64.8851 89.5455 64.7589 89.7706C64.7324 89.8177 64.7059 89.8647 64.6786 89.9133C64.6277 90.004 64.5767 90.0948 64.526 90.1856C64.5031 90.2262 64.4803 90.2668 64.4567 90.3086C64.4366 90.3445 64.4165 90.3804 64.3958 90.4174C64.3417 90.5051 64.3417 90.5051 64.2526 90.5941C64.1456 90.6084 64.0436 90.6169 63.936 90.6215C63.9027 90.6232 63.8694 90.6248 63.8351 90.6265C63.361 90.6478 62.8864 90.6459 62.4121 90.6461C62.3092 90.6463 62.2063 90.6464 62.1035 90.6465C61.8895 90.6468 61.6755 90.6469 61.4615 90.6469C61.1879 90.6469 60.9143 90.6475 60.6407 90.6482C60.429 90.6487 60.2172 90.6488 60.0054 90.6488C59.9045 90.6488 59.8037 90.649 59.7028 90.6494C59.5619 90.6498 59.421 90.6497 59.2801 90.6494C59.239 90.6496 59.1979 90.6499 59.1555 90.6501C58.5162 90.6471 58.5162 90.6471 58.2993 90.4356C58.2075 90.2065 58.2318 90.0053 58.326 89.7772C58.3825 89.6673 58.4427 89.5607 58.5053 89.4541C58.5272 89.4157 58.5491 89.3772 58.5716 89.3376C58.725 89.0696 58.8823 88.8037 59.0441 88.5408C59.1407 88.3836 59.2249 88.2234 59.3073 88.0584C59.3696 87.9503 59.4326 87.8429 59.4966 87.7358C59.6921 87.4064 59.8844 87.0751 60.0758 86.7432C60.2937 86.3653 60.5126 85.9881 60.733 85.6116C60.9835 85.1836 61.2321 84.7546 61.4798 84.3249C61.6374 84.0518 61.7958 83.7793 61.9556 83.5074C62.0225 83.3914 62.0869 83.2745 62.1503 83.1565C62.2961 82.8875 62.4519 82.6249 62.6078 82.3616C62.7589 82.1063 62.9085 81.8501 63.058 81.5939C63.0961 81.5287 63.0961 81.5287 63.135 81.4622C63.1852 81.3761 63.2354 81.2901 63.2856 81.204C63.337 81.1159 63.3887 81.0278 63.4405 80.9399C63.5902 80.6854 63.7348 80.429 63.8754 80.1694C63.9828 79.9743 64.0968 79.7832 64.2108 79.592C64.2356 79.5504 64.2602 79.5088 64.2857 79.4659C64.3899 79.2904 64.4943 79.115 64.5987 78.9397C64.6755 78.8105 64.7522 78.6813 64.829 78.5521C64.8637 78.494 64.8637 78.494 64.899 78.4346C65.0402 78.197 65.1751 77.9567 65.3068 77.7137C65.5571 77.2528 65.8273 76.8024 66.0923 76.3498C66.3018 75.9915 66.5084 75.6316 66.7141 75.2712C66.919 74.9123 67.1248 74.5541 67.3356 74.1987C67.5935 73.7631 67.8454 73.3239 68.0981 72.8851C68.1631 72.7724 68.2283 72.6597 68.2937 72.5471C68.3259 72.4913 68.3582 72.4354 68.3904 72.3795C68.4169 72.3337 68.4435 72.2879 68.4708 72.2407C68.5343 72.131 68.5343 72.131 68.5742 71.9986C68.6036 71.9986 68.633 71.9986 68.6633 71.9986C68.6815 71.9506 68.6815 71.9506 68.7 71.9017C68.7517 71.7779 68.8108 71.6646 68.8768 71.5479C68.9135 71.483 68.9135 71.483 68.9509 71.4168C68.9764 71.3721 69.0018 71.3274 69.0281 71.2813C69.0527 71.2376 69.0772 71.1939 69.1026 71.1489C69.838 69.8525 69.838 69.8525 70.3563 69.9967Z" fill="white"/>
</g>
<path d="M211 24H118C115.239 24 113 26.2386 113 29V111C113 113.761 115.239 116 118 116H211C213.761 116 216 113.761 216 111V29C216 26.2386 213.761 24 211 24Z" fill="#454849"/>
<path d="M128.012 55.0002L125.264 46.6002H127.28L129.668 54.0402H128.66L131.156 46.6002H132.956L135.356 54.0402H134.384L136.832 46.6002H138.692L135.944 55.0002H133.856L131.732 48.4722H132.284L130.1 55.0002H128.012ZM142.369 55.0962C141.633 55.0962 140.985 54.9522 140.425 54.6642C139.873 54.3762 139.445 53.9842 139.141 53.4882C138.837 52.9842 138.685 52.4122 138.685 51.7722C138.685 51.1242 138.833 50.5522 139.129 50.0562C139.433 49.5522 139.845 49.1602 140.365 48.8802C140.885 48.5922 141.473 48.4482 142.129 48.4482C142.761 48.4482 143.329 48.5842 143.833 48.8562C144.345 49.1202 144.749 49.5042 145.045 50.0082C145.341 50.5042 145.489 51.1002 145.489 51.7962C145.489 51.8682 145.485 51.9522 145.477 52.0482C145.469 52.1362 145.461 52.2202 145.453 52.3002H140.209V51.2082H144.469L143.749 51.5322C143.749 51.1962 143.681 50.9042 143.545 50.6562C143.409 50.4082 143.221 50.2162 142.981 50.0802C142.741 49.9362 142.461 49.8642 142.141 49.8642C141.821 49.8642 141.537 49.9362 141.289 50.0802C141.049 50.2162 140.861 50.4122 140.725 50.6682C140.589 50.9162 140.521 51.2122 140.521 51.5562V51.8442C140.521 52.1962 140.597 52.5082 140.749 52.7802C140.909 53.0442 141.129 53.2482 141.409 53.3922C141.697 53.5282 142.033 53.5962 142.417 53.5962C142.761 53.5962 143.061 53.5442 143.317 53.4402C143.581 53.3362 143.821 53.1802 144.037 52.9722L145.033 54.0522C144.737 54.3882 144.365 54.6482 143.917 54.8322C143.469 55.0082 142.953 55.0962 142.369 55.0962ZM150.551 55.0962C149.983 55.0962 149.495 54.9762 149.087 54.7362C148.679 54.4962 148.367 54.1322 148.151 53.6442C147.935 53.1482 147.827 52.5242 147.827 51.7722C147.827 51.0122 147.939 50.3882 148.163 49.9002C148.395 49.4122 148.715 49.0482 149.123 48.8082C149.531 48.5682 150.007 48.4482 150.551 48.4482C151.159 48.4482 151.703 48.5842 152.183 48.8562C152.671 49.1282 153.055 49.5122 153.335 50.0082C153.623 50.5042 153.767 51.0922 153.767 51.7722C153.767 52.4442 153.623 53.0282 153.335 53.5242C153.055 54.0202 152.671 54.4082 152.183 54.6882C151.703 54.9602 151.159 55.0962 150.551 55.0962ZM146.735 55.0002V46.0962H148.607V49.8522L148.487 51.7602L148.523 53.6802V55.0002H146.735ZM150.227 53.5602C150.539 53.5602 150.815 53.4882 151.055 53.3442C151.303 53.2002 151.499 52.9962 151.643 52.7322C151.795 52.4602 151.871 52.1402 151.871 51.7722C151.871 51.3962 151.795 51.0762 151.643 50.8122C151.499 50.5482 151.303 50.3442 151.055 50.2002C150.815 50.0562 150.539 49.9842 150.227 49.9842C149.915 49.9842 149.635 50.0562 149.387 50.2002C149.139 50.3442 148.943 50.5482 148.799 50.8122C148.655 51.0762 148.583 51.3962 148.583 51.7722C148.583 52.1402 148.655 52.4602 148.799 52.7322C148.943 52.9962 149.139 53.2002 149.387 53.3442C149.635 53.4882 149.915 53.5602 150.227 53.5602ZM157.192 55.0962C156.64 55.0962 156.108 55.0322 155.596 54.9042C155.092 54.7682 154.692 54.6002 154.396 54.4002L155.02 53.0562C155.316 53.2402 155.664 53.3922 156.064 53.5122C156.472 53.6242 156.872 53.6802 157.264 53.6802C157.696 53.6802 158 53.6282 158.176 53.5242C158.36 53.4202 158.452 53.2762 158.452 53.0922C158.452 52.9402 158.38 52.8282 158.236 52.7562C158.1 52.6762 157.916 52.6162 157.684 52.5762C157.452 52.5362 157.196 52.4962 156.916 52.4562C156.644 52.4162 156.368 52.3642 156.088 52.3002C155.808 52.2282 155.552 52.1242 155.32 51.9882C155.088 51.8522 154.9 51.6682 154.756 51.4362C154.62 51.2042 154.552 50.9042 154.552 50.5362C154.552 50.1282 154.668 49.7682 154.9 49.4562C155.14 49.1442 155.484 48.9002 155.932 48.7242C156.38 48.5402 156.916 48.4482 157.54 48.4482C157.98 48.4482 158.428 48.4962 158.884 48.5922C159.34 48.6882 159.72 48.8282 160.024 49.0122L159.4 50.3442C159.088 50.1602 158.772 50.0362 158.452 49.9722C158.14 49.9002 157.836 49.8642 157.54 49.8642C157.124 49.8642 156.82 49.9202 156.628 50.0322C156.436 50.1442 156.34 50.2882 156.34 50.4642C156.34 50.6242 156.408 50.7442 156.544 50.8242C156.688 50.9042 156.876 50.9682 157.108 51.0162C157.34 51.0642 157.592 51.1082 157.864 51.1482C158.144 51.1802 158.424 51.2322 158.704 51.3042C158.984 51.3762 159.236 51.4802 159.46 51.6162C159.692 51.7442 159.88 51.9242 160.024 52.1562C160.168 52.3802 160.24 52.6762 160.24 53.0442C160.24 53.4442 160.12 53.8002 159.88 54.1122C159.64 54.4162 159.292 54.6562 158.836 54.8322C158.388 55.0082 157.84 55.0962 157.192 55.0962ZM161.395 55.0002V48.5442H163.267V55.0002H161.395ZM162.331 47.6442C161.987 47.6442 161.707 47.5442 161.491 47.3442C161.275 47.1442 161.167 46.8962 161.167 46.6002C161.167 46.3042 161.275 46.0562 161.491 45.8562C161.707 45.6562 161.987 45.5562 162.331 45.5562C162.675 45.5562 162.955 45.6522 163.171 45.8442C163.387 46.0282 163.495 46.2682 163.495 46.5642C163.495 46.8762 163.387 47.1362 163.171 47.3442C162.963 47.5442 162.683 47.6442 162.331 47.6442ZM167.645 55.0962C166.885 55.0962 166.293 54.9042 165.869 54.5202C165.445 54.1282 165.233 53.5482 165.233 52.7802V47.1162H167.105V52.7562C167.105 53.0282 167.177 53.2402 167.321 53.3922C167.465 53.5362 167.661 53.6082 167.909 53.6082C168.205 53.6082 168.457 53.5282 168.665 53.3682L169.169 54.6882C168.977 54.8242 168.745 54.9282 168.473 55.0002C168.209 55.0642 167.933 55.0962 167.645 55.0962ZM164.237 50.1282V48.6882H168.713V50.1282H164.237ZM173.224 55.0962C172.488 55.0962 171.84 54.9522 171.28 54.6642C170.728 54.3762 170.3 53.9842 169.996 53.4882C169.692 52.9842 169.54 52.4122 169.54 51.7722C169.54 51.1242 169.688 50.5522 169.984 50.0562C170.288 49.5522 170.7 49.1602 171.22 48.8802C171.74 48.5922 172.328 48.4482 172.984 48.4482C173.616 48.4482 174.184 48.5842 174.688 48.8562C175.2 49.1202 175.604 49.5042 175.9 50.0082C176.196 50.5042 176.344 51.1002 176.344 51.7962C176.344 51.8682 176.34 51.9522 176.332 52.0482C176.324 52.1362 176.316 52.2202 176.308 52.3002H171.064V51.2082H175.324L174.604 51.5322C174.604 51.1962 174.536 50.9042 174.4 50.6562C174.264 50.4082 174.076 50.2162 173.836 50.0802C173.596 49.9362 173.316 49.8642 172.996 49.8642C172.676 49.8642 172.392 49.9362 172.144 50.0802C171.904 50.2162 171.716 50.4122 171.58 50.6682C171.444 50.9162 171.376 51.2122 171.376 51.5562V51.8442C171.376 52.1962 171.452 52.5082 171.604 52.7802C171.764 53.0442 171.984 53.2482 172.264 53.3922C172.552 53.5282 172.888 53.5962 173.272 53.5962C173.616 53.5962 173.916 53.5442 174.172 53.4402C174.436 53.3362 174.676 53.1802 174.892 52.9722L175.888 54.0522C175.592 54.3882 175.22 54.6482 174.772 54.8322C174.324 55.0082 173.808 55.0962 173.224 55.0962ZM179.763 55.0962C179.211 55.0962 178.679 55.0322 178.167 54.9042C177.663 54.7682 177.263 54.6002 176.967 54.4002L177.591 53.0562C177.887 53.2402 178.235 53.3922 178.635 53.5122C179.043 53.6242 179.443 53.6802 179.835 53.6802C180.267 53.6802 180.571 53.6282 180.747 53.5242C180.931 53.4202 181.023 53.2762 181.023 53.0922C181.023 52.9402 180.951 52.8282 180.807 52.7562C180.671 52.6762 180.487 52.6162 180.255 52.5762C180.023 52.5362 179.767 52.4962 179.487 52.4562C179.215 52.4162 178.939 52.3642 178.659 52.3002C178.379 52.2282 178.123 52.1242 177.891 51.9882C177.659 51.8522 177.471 51.6682 177.327 51.4362C177.191 51.2042 177.123 50.9042 177.123 50.5362C177.123 50.1282 177.239 49.7682 177.471 49.4562C177.711 49.1442 178.055 48.9002 178.503 48.7242C178.951 48.5402 179.487 48.4482 180.111 48.4482C180.551 48.4482 180.999 48.4962 181.455 48.5922C181.911 48.6882 182.291 48.8282 182.595 49.0122L181.971 50.3442C181.659 50.1602 181.343 50.0362 181.023 49.9722C180.711 49.9002 180.407 49.8642 180.111 49.8642C179.695 49.8642 179.391 49.9202 179.199 50.0322C179.007 50.1442 178.911 50.2882 178.911 50.4642C178.911 50.6242 178.979 50.7442 179.115 50.8242C179.259 50.9042 179.447 50.9682 179.679 51.0162C179.911 51.0642 180.163 51.1082 180.435 51.1482C180.715 51.1802 180.995 51.2322 181.275 51.3042C181.555 51.3762 181.807 51.4802 182.031 51.6162C182.263 51.7442 182.451 51.9242 182.595 52.1562C182.739 52.3802 182.811 52.6762 182.811 53.0442C182.811 53.4442 182.691 53.8002 182.451 54.1122C182.211 54.4162 181.863 54.6562 181.407 54.8322C180.959 55.0082 180.411 55.0962 179.763 55.0962ZM125.996 73.0002V64.6002H127.604L131.18 70.5282H130.328L133.844 64.6002H135.44L135.464 73.0002H133.64L133.628 67.3962H133.964L131.156 72.1122H130.28L127.412 67.3962H127.82V73.0002H125.996ZM141.285 73.0002V71.7402L141.165 71.4641V69.2082C141.165 68.8082 141.041 68.4962 140.793 68.2722C140.553 68.0482 140.181 67.9361 139.677 67.9361C139.333 67.9361 138.993 67.9921 138.657 68.1041C138.329 68.2081 138.049 68.3522 137.817 68.5362L137.145 67.2281C137.497 66.9802 137.921 66.7882 138.417 66.6522C138.913 66.5162 139.417 66.4482 139.929 66.4482C140.913 66.4482 141.677 66.6801 142.221 67.1441C142.765 67.6082 143.037 68.3322 143.037 69.3162V73.0002H141.285ZM139.317 73.0962C138.813 73.0962 138.381 73.0122 138.021 72.8442C137.661 72.6682 137.385 72.4322 137.193 72.1362C137.001 71.8402 136.905 71.5082 136.905 71.1402C136.905 70.7562 136.997 70.4202 137.181 70.1322C137.373 69.8442 137.673 69.6202 138.081 69.4602C138.489 69.2922 139.021 69.2082 139.677 69.2082H141.393V70.3002H139.881C139.441 70.3002 139.137 70.3722 138.969 70.5162C138.809 70.6602 138.729 70.8402 138.729 71.0562C138.729 71.2962 138.821 71.4882 139.005 71.6322C139.197 71.7682 139.457 71.8362 139.785 71.8362C140.097 71.8362 140.377 71.7642 140.625 71.6202C140.873 71.4682 141.053 71.2482 141.165 70.9602L141.453 71.8242C141.317 72.2402 141.069 72.5562 140.709 72.7722C140.349 72.9882 139.885 73.0962 139.317 73.0962ZM144.731 73.0002V66.5442H146.519V68.3681L146.267 67.8401C146.459 67.3841 146.767 67.0402 147.191 66.8082C147.615 66.5682 148.131 66.4482 148.739 66.4482V68.1762C148.659 68.1682 148.587 68.1642 148.523 68.1642C148.459 68.1562 148.391 68.1522 148.319 68.1522C147.807 68.1522 147.391 68.3002 147.071 68.5962C146.759 68.8842 146.603 69.3362 146.603 69.9522V73.0002H144.731ZM151.412 71.6802L151.46 69.4002L154.472 66.5442H156.704L153.812 69.4842L152.84 70.2762L151.412 71.6802ZM149.864 73.0002V64.0962H151.736V73.0002H149.864ZM154.676 73.0002L152.492 70.2882L153.668 68.8362L156.944 73.0002H154.676ZM160.72 73.0962C159.984 73.0962 159.336 72.9522 158.776 72.6642C158.224 72.3762 157.796 71.9842 157.492 71.4882C157.188 70.9842 157.036 70.4122 157.036 69.7722C157.036 69.1242 157.184 68.5522 157.48 68.0562C157.784 67.5522 158.196 67.1602 158.716 66.8801C159.236 66.5921 159.824 66.4482 160.48 66.4482C161.112 66.4482 161.68 66.5842 162.184 66.8562C162.696 67.1202 163.1 67.5042 163.396 68.0082C163.692 68.5042 163.84 69.1002 163.84 69.7962C163.84 69.8682 163.836 69.9521 163.828 70.0481C163.82 70.1361 163.812 70.2202 163.804 70.3002H158.56V69.2082H162.82L162.1 69.5322C162.1 69.1961 162.032 68.9042 161.896 68.6562C161.76 68.4082 161.572 68.2162 161.332 68.0802C161.092 67.9362 160.812 67.8642 160.492 67.8642C160.172 67.8642 159.888 67.9362 159.64 68.0802C159.4 68.2162 159.212 68.4122 159.076 68.6682C158.94 68.9162 158.872 69.2122 158.872 69.5562V69.8442C158.872 70.1962 158.948 70.5082 159.1 70.7802C159.26 71.0442 159.48 71.2482 159.76 71.3922C160.048 71.5282 160.384 71.5962 160.768 71.5962C161.112 71.5962 161.412 71.5442 161.668 71.4402C161.932 71.3362 162.172 71.1802 162.388 70.9722L163.384 72.0522C163.088 72.3882 162.716 72.6482 162.268 72.8322C161.82 73.0082 161.304 73.0962 160.72 73.0962ZM167.727 73.0962C166.967 73.0962 166.375 72.9042 165.951 72.5201C165.527 72.1281 165.315 71.5482 165.315 70.7802V65.1161H167.187V70.7561C167.187 71.0281 167.259 71.2402 167.403 71.3922C167.547 71.5361 167.743 71.6082 167.991 71.6082C168.287 71.6082 168.539 71.5281 168.747 71.3681L169.251 72.6882C169.059 72.8242 168.827 72.9282 168.555 73.0002C168.291 73.0642 168.015 73.0962 167.727 73.0962ZM164.319 68.1282V66.6882H168.795V68.1282H164.319ZM170.302 73.0002V66.5442H172.174V73.0002H170.302ZM171.238 65.6441C170.894 65.6441 170.614 65.5442 170.398 65.3442C170.182 65.1442 170.074 64.8962 170.074 64.6002C170.074 64.3042 170.182 64.0562 170.398 63.8562C170.614 63.6562 170.894 63.5562 171.238 63.5562C171.582 63.5562 171.862 63.6522 172.078 63.8442C172.294 64.0282 172.402 64.2682 172.402 64.5642C172.402 64.8762 172.294 65.1362 172.078 65.3442C171.87 65.5442 171.59 65.6441 171.238 65.6441ZM177.835 66.4482C178.347 66.4482 178.803 66.5522 179.203 66.7602C179.611 66.9602 179.931 67.2722 180.163 67.6962C180.395 68.1122 180.511 68.6482 180.511 69.3042V73.0002H178.639V69.5922C178.639 69.0722 178.523 68.6882 178.291 68.4402C178.067 68.1922 177.747 68.0682 177.331 68.0682C177.035 68.0682 176.767 68.1322 176.527 68.2602C176.295 68.3802 176.111 68.5681 175.975 68.8242C175.847 69.0802 175.783 69.4082 175.783 69.8082V73.0002H173.911V66.5442H175.699V68.3322L175.363 67.7922C175.595 67.3602 175.927 67.0282 176.359 66.7962C176.791 66.5641 177.283 66.4482 177.835 66.4482ZM185.291 75.4242C184.683 75.4242 184.095 75.3482 183.527 75.1962C182.967 75.0522 182.499 74.8322 182.123 74.5362L182.867 73.1922C183.139 73.4162 183.483 73.5922 183.899 73.7202C184.323 73.8562 184.739 73.9242 185.147 73.9242C185.811 73.9242 186.291 73.7762 186.587 73.4802C186.891 73.1842 187.043 72.7442 187.043 72.1602V71.1882L187.163 69.5682L187.139 67.9361V66.5442H188.915V71.9202C188.915 73.1202 188.603 74.0042 187.979 74.5722C187.355 75.1402 186.459 75.4242 185.291 75.4242ZM185.003 72.6882C184.403 72.6882 183.859 72.5602 183.371 72.3042C182.891 72.0402 182.503 71.6762 182.207 71.2122C181.919 70.7402 181.775 70.1922 181.775 69.5682C181.775 68.9362 181.919 68.3882 182.207 67.9242C182.503 67.4522 182.891 67.0882 183.371 66.8322C183.859 66.5762 184.403 66.4482 185.003 66.4482C185.547 66.4482 186.027 66.5601 186.443 66.7841C186.859 67.0001 187.183 67.3402 187.415 67.8042C187.647 68.2602 187.763 68.8482 187.763 69.5682C187.763 70.2802 187.647 70.8682 187.415 71.3322C187.183 71.7882 186.859 72.1281 186.443 72.3521C186.027 72.5762 185.547 72.6882 185.003 72.6882ZM185.375 71.1522C185.703 71.1522 185.995 71.0882 186.251 70.9602C186.507 70.8242 186.707 70.6362 186.851 70.3962C186.995 70.1562 187.067 69.8802 187.067 69.5682C187.067 69.2482 186.995 68.9722 186.851 68.7402C186.707 68.5002 186.507 68.3162 186.251 68.1882C185.995 68.0522 185.703 67.9842 185.375 67.9842C185.047 67.9842 184.755 68.0522 184.499 68.1882C184.243 68.3162 184.039 68.5002 183.887 68.7402C183.743 68.9722 183.671 69.2482 183.671 69.5682C183.671 69.8802 183.743 70.1562 183.887 70.3962C184.039 70.6362 184.243 70.8242 184.499 70.9602C184.755 71.0882 185.047 71.1522 185.375 71.1522ZM128.756 91.1441C128.084 91.1441 127.44 91.0561 126.824 90.8801C126.208 90.6962 125.712 90.4601 125.336 90.1721L125.996 88.7082C126.356 88.9642 126.78 89.1762 127.268 89.3442C127.764 89.5042 128.264 89.5842 128.768 89.5842C129.152 89.5842 129.46 89.5481 129.692 89.4762C129.932 89.3961 130.108 89.2882 130.22 89.1522C130.332 89.0162 130.388 88.8601 130.388 88.6842C130.388 88.4602 130.3 88.2841 130.124 88.1562C129.948 88.0201 129.716 87.9122 129.428 87.8322C129.14 87.7442 128.82 87.6642 128.468 87.5922C128.124 87.5122 127.776 87.4162 127.424 87.3042C127.08 87.1922 126.764 87.0482 126.476 86.8722C126.188 86.6962 125.952 86.4642 125.768 86.1762C125.592 85.8882 125.504 85.5202 125.504 85.0722C125.504 84.5922 125.632 84.1562 125.888 83.7642C126.152 83.3642 126.544 83.0482 127.064 82.8162C127.592 82.5762 128.252 82.4562 129.044 82.4562C129.572 82.4562 130.092 82.5202 130.604 82.6482C131.116 82.7682 131.568 82.9521 131.96 83.2001L131.36 84.6762C130.968 84.4522 130.576 84.2882 130.184 84.1842C129.792 84.0722 129.408 84.0162 129.032 84.0162C128.656 84.0162 128.348 84.0602 128.108 84.1482C127.868 84.2362 127.696 84.3522 127.592 84.4962C127.488 84.6322 127.436 84.7922 127.436 84.9762C127.436 85.1922 127.524 85.3681 127.7 85.5042C127.876 85.6321 128.108 85.7362 128.396 85.8162C128.684 85.8962 129 85.9762 129.344 86.0562C129.696 86.1362 130.044 86.2282 130.388 86.3322C130.74 86.4362 131.06 86.5762 131.348 86.7522C131.636 86.9282 131.868 87.1602 132.044 87.4482C132.228 87.7361 132.32 88.1002 132.32 88.5402C132.32 89.0122 132.188 89.4442 131.924 89.8362C131.66 90.2281 131.264 90.5441 130.736 90.7841C130.216 91.0242 129.556 91.1441 128.756 91.1441ZM136.588 91.0962C135.9 91.0962 135.288 90.9522 134.752 90.6642C134.224 90.3762 133.804 89.9841 133.492 89.4882C133.188 88.9841 133.036 88.4122 133.036 87.7722C133.036 87.1242 133.188 86.5522 133.492 86.0562C133.804 85.5522 134.224 85.1601 134.752 84.8801C135.288 84.5922 135.9 84.4482 136.588 84.4482C137.268 84.4482 137.876 84.5922 138.412 84.8801C138.948 85.1601 139.368 85.5482 139.672 86.0442C139.976 86.5401 140.128 87.1162 140.128 87.7722C140.128 88.4122 139.976 88.9841 139.672 89.4882C139.368 89.9841 138.948 90.3762 138.412 90.6642C137.876 90.9522 137.268 91.0962 136.588 91.0962ZM136.588 89.5602C136.9 89.5602 137.18 89.4882 137.428 89.3442C137.676 89.2002 137.872 88.9962 138.016 88.7322C138.16 88.4602 138.232 88.1402 138.232 87.7722C138.232 87.3962 138.16 87.0761 138.016 86.8121C137.872 86.5481 137.676 86.3442 137.428 86.2001C137.18 86.0561 136.9 85.9842 136.588 85.9842C136.276 85.9842 135.996 86.0561 135.748 86.2001C135.5 86.3442 135.3 86.5481 135.148 86.8121C135.004 87.0761 134.932 87.3962 134.932 87.7722C134.932 88.1402 135.004 88.4602 135.148 88.7322C135.3 88.9962 135.5 89.2002 135.748 89.3442C135.996 89.4882 136.276 89.5602 136.588 89.5602ZM144.5 91.0962C143.804 91.0962 143.184 90.9562 142.64 90.6762C142.096 90.3882 141.668 89.9922 141.356 89.4882C141.052 88.9841 140.9 88.4122 140.9 87.7722C140.9 87.1242 141.052 86.5522 141.356 86.0562C141.668 85.5522 142.096 85.1601 142.64 84.8801C143.184 84.5922 143.804 84.4482 144.5 84.4482C145.18 84.4482 145.772 84.5922 146.276 84.8801C146.78 85.1601 147.152 85.5642 147.392 86.0922L145.94 86.8722C145.772 86.5682 145.56 86.3442 145.304 86.2001C145.056 86.0561 144.784 85.9842 144.488 85.9842C144.168 85.9842 143.88 86.0561 143.624 86.2001C143.368 86.3442 143.164 86.5481 143.012 86.8121C142.868 87.0761 142.796 87.3962 142.796 87.7722C142.796 88.1482 142.868 88.4682 143.012 88.7322C143.164 88.9962 143.368 89.2002 143.624 89.3442C143.88 89.4882 144.168 89.5602 144.488 89.5602C144.784 89.5602 145.056 89.4922 145.304 89.3562C145.56 89.2122 145.772 88.9841 145.94 88.6721L147.392 89.4641C147.152 89.9841 146.78 90.3882 146.276 90.6762C145.772 90.9562 145.18 91.0962 144.5 91.0962ZM148.434 91.0002V84.5442H150.306V91.0002H148.434ZM149.37 83.6441C149.026 83.6441 148.746 83.5442 148.53 83.3442C148.314 83.1442 148.206 82.8962 148.206 82.6002C148.206 82.3041 148.314 82.0562 148.53 81.8562C148.746 81.6562 149.026 81.5562 149.37 81.5562C149.714 81.5562 149.994 81.6522 150.21 81.8442C150.426 82.0282 150.534 82.2682 150.534 82.5642C150.534 82.8762 150.426 83.1362 150.21 83.3442C150.002 83.5442 149.722 83.6441 149.37 83.6441ZM156.004 91.0002V89.7402L155.884 89.4641V87.2082C155.884 86.8082 155.76 86.4962 155.512 86.2722C155.272 86.0482 154.9 85.9361 154.396 85.9361C154.052 85.9361 153.712 85.9921 153.376 86.1041C153.048 86.2081 152.768 86.3522 152.536 86.5362L151.864 85.2281C152.216 84.9801 152.64 84.7882 153.136 84.6522C153.632 84.5162 154.136 84.4482 154.648 84.4482C155.632 84.4482 156.396 84.6801 156.94 85.1441C157.484 85.6082 157.756 86.3322 157.756 87.3162V91.0002H156.004ZM154.036 91.0962C153.532 91.0962 153.1 91.0122 152.74 90.8442C152.38 90.6682 152.104 90.4322 151.912 90.1362C151.72 89.8402 151.624 89.5082 151.624 89.1402C151.624 88.7562 151.716 88.4202 151.9 88.1322C152.092 87.8442 152.392 87.6202 152.8 87.4602C153.208 87.2922 153.74 87.2082 154.396 87.2082H156.112V88.3002H154.6C154.16 88.3002 153.856 88.3722 153.688 88.5162C153.528 88.6602 153.448 88.8402 153.448 89.0562C153.448 89.2962 153.54 89.4882 153.724 89.6322C153.916 89.7682 154.176 89.8362 154.504 89.8362C154.816 89.8362 155.096 89.7642 155.344 89.6202C155.592 89.4682 155.772 89.2481 155.884 88.9602L156.172 89.8242C156.036 90.2402 155.788 90.5562 155.428 90.7722C155.068 90.9882 154.604 91.0962 154.036 91.0962ZM159.45 91.0002V82.0962H161.322V91.0002H159.45ZM166.59 91.0002V82.6002H168.198L171.774 88.5282H170.922L174.438 82.6002H176.034L176.058 91.0002H174.234L174.222 85.3962H174.558L171.75 90.1122H170.874L168.006 85.3962H168.414V91.0002H166.59ZM181.123 91.0962C180.387 91.0962 179.739 90.9522 179.179 90.6642C178.627 90.3762 178.199 89.9841 177.895 89.4882C177.591 88.9841 177.439 88.4122 177.439 87.7722C177.439 87.1242 177.587 86.5522 177.883 86.0562C178.187 85.5522 178.599 85.1601 179.119 84.8801C179.639 84.5922 180.227 84.4482 180.883 84.4482C181.515 84.4482 182.083 84.5842 182.587 84.8562C183.099 85.1202 183.503 85.5042 183.799 86.0082C184.095 86.5042 184.243 87.1002 184.243 87.7962C184.243 87.8681 184.239 87.9521 184.231 88.0481C184.223 88.1362 184.215 88.2202 184.207 88.3002H178.963V87.2082H183.223L182.503 87.5322C182.503 87.1962 182.435 86.9042 182.299 86.6562C182.163 86.4081 181.975 86.2162 181.735 86.0802C181.495 85.9362 181.215 85.8642 180.895 85.8642C180.575 85.8642 180.291 85.9362 180.043 86.0802C179.803 86.2162 179.615 86.4122 179.479 86.6682C179.343 86.9162 179.275 87.2122 179.275 87.5562V87.8442C179.275 88.1962 179.351 88.5082 179.503 88.7802C179.663 89.0442 179.883 89.2481 180.163 89.3922C180.451 89.5282 180.787 89.5962 181.171 89.5962C181.515 89.5962 181.815 89.5442 182.071 89.4402C182.335 89.3362 182.575 89.1802 182.791 88.9722L183.787 90.0522C183.491 90.3882 183.119 90.6482 182.671 90.8322C182.223 91.0082 181.707 91.0962 181.123 91.0962ZM188.261 91.0962C187.653 91.0962 187.105 90.9602 186.617 90.6882C186.129 90.4082 185.741 90.0202 185.453 89.5242C185.173 89.0282 185.033 88.4442 185.033 87.7722C185.033 87.0922 185.173 86.5042 185.453 86.0082C185.741 85.5122 186.129 85.1282 186.617 84.8562C187.105 84.5842 187.653 84.4482 188.261 84.4482C188.805 84.4482 189.281 84.5681 189.689 84.8082C190.097 85.0482 190.413 85.4122 190.637 85.9002C190.861 86.3882 190.973 87.0122 190.973 87.7722C190.973 88.5242 190.865 89.1482 190.649 89.6441C190.433 90.1321 190.121 90.4962 189.713 90.7362C189.313 90.9762 188.829 91.0962 188.261 91.0962ZM188.585 89.5602C188.889 89.5602 189.165 89.4882 189.413 89.3442C189.661 89.2002 189.857 88.9962 190.001 88.7322C190.153 88.4602 190.229 88.1402 190.229 87.7722C190.229 87.3962 190.153 87.0761 190.001 86.8121C189.857 86.5481 189.661 86.3442 189.413 86.2001C189.165 86.0561 188.889 85.9842 188.585 85.9842C188.273 85.9842 187.993 86.0561 187.745 86.2001C187.497 86.3442 187.297 86.5481 187.145 86.8121C187.001 87.0761 186.929 87.3962 186.929 87.7722C186.929 88.1402 187.001 88.4602 187.145 88.7322C187.297 88.9962 187.497 89.2002 187.745 89.3442C187.993 89.4882 188.273 89.5602 188.585 89.5602ZM190.277 91.0002V89.6802L190.313 87.7602L190.193 85.8521V82.0962H192.065V91.0002H190.277ZM193.798 91.0002V84.5442H195.67V91.0002H193.798ZM194.734 83.6441C194.39 83.6441 194.11 83.5442 193.894 83.3442C193.678 83.1442 193.57 82.8962 193.57 82.6002C193.57 82.3041 193.678 82.0562 193.894 81.8562C194.11 81.6562 194.39 81.5562 194.734 81.5562C195.078 81.5562 195.358 81.6522 195.574 81.8442C195.79 82.0282 195.898 82.2682 195.898 82.5642C195.898 82.8762 195.79 83.1362 195.574 83.3442C195.366 83.5442 195.086 83.6441 194.734 83.6441ZM201.367 91.0002V89.7402L201.247 89.4641V87.2082C201.247 86.8082 201.123 86.4962 200.875 86.2722C200.635 86.0482 200.263 85.9361 199.759 85.9361C199.415 85.9361 199.075 85.9921 198.739 86.1041C198.411 86.2081 198.131 86.3522 197.899 86.5362L197.227 85.2281C197.579 84.9801 198.003 84.7882 198.499 84.6522C198.995 84.5162 199.499 84.4482 200.011 84.4482C200.995 84.4482 201.759 84.6801 202.303 85.1441C202.847 85.6082 203.119 86.3322 203.119 87.3162V91.0002H201.367ZM199.399 91.0962C198.895 91.0962 198.463 91.0122 198.103 90.8442C197.743 90.6682 197.467 90.4322 197.275 90.1362C197.083 89.8402 196.987 89.5082 196.987 89.1402C196.987 88.7562 197.079 88.4202 197.263 88.1322C197.455 87.8442 197.755 87.6202 198.163 87.4602C198.571 87.2922 199.103 87.2082 199.759 87.2082H201.475V88.3002H199.963C199.523 88.3002 199.219 88.3722 199.051 88.5162C198.891 88.6602 198.811 88.8402 198.811 89.0562C198.811 89.2962 198.903 89.4882 199.087 89.6322C199.279 89.7682 199.539 89.8362 199.867 89.8362C200.179 89.8362 200.459 89.7642 200.707 89.6202C200.955 89.4682 201.135 89.2481 201.247 88.9602L201.535 89.8242C201.399 90.2402 201.151 90.5562 200.791 90.7722C200.431 90.9882 199.967 91.0962 199.399 91.0962Z" fill="white"/>
</svg>
