<svg width="41" height="41" viewBox="0 0 41 41" fill="none" xmlns="http://www.w3.org/2000/svg">
<path d="M20.5 0.5C31.5457 0.5 40.5 9.45431 40.5 20.5C40.5 31.5457 31.5457 40.5 20.5 40.5C9.45431 40.5 0.5 31.5457 0.5 20.5C0.5 9.45431 9.45431 0.5 20.5 0.5ZM20.5 3.11426C19.43 3.11426 18.3828 3.21143 17.3662 3.39648C25.1582 3.80559 31.3506 10.2536 31.3506 18.1475L31.3457 18.5283C31.1435 26.51 24.6094 32.9188 16.5791 32.9189L16.1973 32.9141C10.9916 32.782 6.45628 29.9557 3.93066 25.7783C6.16539 32.7994 12.7385 37.8857 20.5 37.8857C30.1018 37.8857 37.8857 30.1018 37.8857 20.5C37.8857 10.8982 30.1018 3.11426 20.5 3.11426ZM16.5791 5.99023C9.86517 5.99037 4.42188 11.4335 4.42188 18.1475C4.4221 24.8612 9.86531 30.3036 16.5791 30.3037C17.1605 30.3037 17.7324 30.2615 18.292 30.1826C15.2812 29.0661 13.1 26.2417 12.9297 22.8848L12.9189 22.4609C12.9189 17.9127 16.6061 14.2256 21.1543 14.2256L21.5781 14.2363C24.7654 14.3979 27.473 16.3723 28.6943 19.1484C28.7213 18.8183 28.7353 18.4845 28.7354 18.1475C28.7354 11.4335 23.293 5.99037 16.5791 5.99023ZM21.1543 16.8398C18.05 16.8399 15.5332 19.3566 15.5332 22.4609C15.5333 25.5652 18.05 28.082 21.1543 28.082C24.2585 28.082 26.7753 25.5652 26.7754 22.4609C26.7754 19.3566 24.2586 16.8399 21.1543 16.8398Z" fill="white"/>
</svg>
